<?xml version="1.0" encoding="utf-8"?>
<!-- Generator: Adobe Illustrator 22.0.1, SVG Export Plug-In . SVG Version: 6.00 Build 0)  -->
<svg version="1.1" id="Layer_1" xmlns="http://www.w3.org/2000/svg" xmlns:xlink="http://www.w3.org/1999/xlink" x="0px" y="0px"
	 viewBox="0 0 30 30" style="enable-background:new 0 0 30 30;" xml:space="preserve">
<style type="text/css">
	.st0{fill:#FF0000;}
	.st1{fill:#FFFFFF;}
	.st2{fill:#E30013;}
</style>
<g>
	<polygon class="st0" points="-22.1,45 -22.1,47 -22.1,69 -16.4,69 -16.4,45 -22.1,45 	"/>
	<polygon class="st0" points="39.3,45 39.3,47 39.3,69 45.1,69 45.1,45 39.3,45 	"/>
	<path class="st0" d="M25,51.9c0,0-0.4-0.4-1.2-0.8c-0.3-0.1-0.8-0.4-1.4-0.6c-0.8-0.3-1.4-0.4-1.6-0.4c-1.3-0.2-2.8-0.3-4.3,0.3
		c-3,1.1-4.6,3.4-4.9,3.9c-0.5-0.7-1.5-2-2.6-2.7c-1.6-1-3.4-1.7-5.3-1.7c-2.2,0-4.2,0.8-5.7,2.3c-1.5,1.4-2.4,3.2-2.3,5.1
		c0,2,0.8,3.9,2.3,5.3c0,0,0.4,0.4,1.2,0.8c0.9,0.5,4.1,1.9,7.3,0.8c3-1.1,4.6-3.4,4.9-3.9c0.5,0.7,1.5,2,2.6,2.7
		c1.6,1,3.4,1.7,5.3,1.7c2.2,0,4.2-0.8,5.7-2.3c1.5-1.4,2.3-3.2,2.3-5.1C27.4,55.2,26.5,53.3,25,51.9L25,51.9z M6.7,61.1
		c-1.3,0.8-2.5,0.9-3.7,0.8c-1.5-0.2-2.5-0.7-3.2-1.6c-0.7-0.9-1.1-2-1-3.3c0.2-1.3,0.7-2.2,1.7-3c1-0.8,2.1-1.1,3.5-1
		c1.3,0.1,2.6,0.9,3.5,1.8C9.2,56.6,9.9,58,9.9,58S8.8,59.9,6.7,61.1L6.7,61.1z M24.1,57.5c-0.2,1.3-0.7,2.2-1.6,3
		c-1,0.8-2.1,1.1-3.5,1c-1.3-0.1-2.6-0.9-3.5-1.8c-1.6-1.7-2.3-3.2-2.3-3.2s1.1-1.9,3.2-3.1c1.3-0.8,2.5-0.9,3.7-0.8
		c1.5,0.2,2.5,0.7,3.2,1.6C23.9,55.1,24.2,56.2,24.1,57.5L24.1,57.5z"/>
</g>
<g>
	<path class="st1" d="M30,27.2l-7.8-7.8c1.4-2,2.2-4.5,2.2-7.2C24.3,5.4,18.7,0,12,0S-0.1,5.7,0,12.5C0,19.3,5.6,24.8,12.3,24.7
		c2.7,0,5.1-0.9,7.1-2.4l7.8,7.8L30,27.2z"/>
</g>
<path class="st1" d="M-173.1,34.7v-2.5h0.7v0.7h0.6v-0.7h0.7v2.5H-173.1z M-169.6,36.8v-1.1h-3v-0.6h3.8v1.7H-169.6z M-171.8,33.5
	h-0.6V34h0.6V33.5z M-169.5,34.8v-1.1h-0.4v1.1h-0.7V32h0.7v1h0.4v-1.1h0.7v2.9H-169.5z"/>
<path class="st1" d="M-163,34.3l-1.2,0v-2.2h0.7v1.5l0.4,0c0.7,0,1.4-0.1,1.8-0.2v0.6C-161.5,34.1-162.2,34.3-163,34.3z
	 M-163.6,36.8v-2h3.5v2H-163.6z M-160.8,35.4h-2v0.7h2V35.4z M-160.1,33.6v1h-0.7v-2.6h0.7v1h0.7v0.6H-160.1z"/>
<path class="st1" d="M-152.4,34.9v0.8h-0.8v-0.8h-2.2v-0.6h4.9v0.6H-152.4z M-151.2,34.1c-0.7-0.1-1.3-0.3-1.7-0.8
	c-0.3,0.4-1.1,0.7-1.7,0.8l-0.4-0.5c0.5,0,1.5-0.3,1.7-0.8h-1.4v-0.6h3.8v0.6h-1.4c0.3,0.6,1.4,0.8,1.7,0.8L-151.2,34.1z
	 M-154.8,36.7v-1.4h0.8v0.7h3.1v0.6H-154.8z"/>
<path class="st1" d="M-144.8,36c-0.8,0-1.4-0.7-1.4-1.9c0-1.1,0.6-1.9,1.4-1.9c0.9,0,1.4,0.7,1.4,1.9C-143.4,35.2-143.9,36-144.8,36
	z M-144.8,32.9c-0.4,0-0.7,0.6-0.7,1.2c0,0.6,0.3,1.2,0.7,1.2c0.4,0,0.7-0.6,0.7-1.2C-144.1,33.5-144.4,32.9-144.8,32.9z M-142,34.5
	v2.3h-0.7v-4.9h0.7v1.9h0.7v0.7H-142z"/>
<path class="st1" d="M-137.3,36.3v-0.6h4.9v0.6H-137.3z M-136.7,35.1v-2.8h3.7V33h-2.9v0.4h2.9V34h-2.9v0.4h3v0.6H-136.7z"/>
<path class="st1" d="M-126.1,34.9c-0.3-0.2-0.6-0.5-0.9-0.9c-0.2,0.4-0.5,0.7-0.9,0.9l-0.5-0.5c0.5-0.3,1-0.9,1-1.8v-0.7h0.8v0.7
	c0,0.9,0.5,1.3,0.9,1.6L-126.1,34.9z M-127.3,36.7v-1.5h0.8v0.9h3v0.6H-127.3z M-125.4,35.4v-1.8h-0.7V33h0.7V32h0.7v3.4H-125.4z
	 M-124.4,35.5v-3.6h0.7v3.6H-124.4z"/>
<path class="st1" d="M-117.1,35.8c-0.6,0-1.7,0-1.8,0v-3.5h2.3V33h-1.6v0.7h1.5v0.6h-1.5v0.8c0,0,0.5,0,1,0c0.4,0,0.7-0.1,1-0.1v0.6
	C-116.5,35.8-116.8,35.8-117.1,35.8z M-115.6,36.8v-2.5h-0.7v-0.7h0.7v-1.8h0.7v4.9H-115.6z"/>
<path class="st1" d="M-186.3,21.4c0,0-0.1-0.2-0.3-0.3C-186.7,21-187,21-187,21c0,0-0.2,0-0.4,0.1c-0.2,0.1-0.3,0.2-0.4,0.5l-1,2.8
	c0,0,0,0,0,0c0,0,0,0,0,0l-1-2.8c-0.1-0.2-0.2-0.4-0.4-0.5c-0.1-0.1-0.3-0.1-0.4-0.1c-0.1,0-0.3,0-0.4,0.1c-0.2,0.1-0.3,0.3-0.3,0.4
	c0,0.1-0.1,0.2-0.1,0.3v4.8h1.4v-0.7h-0.6v-4.1c0,0,0,0,0,0c0,0,0,0,0,0l1,2.8c0.1,0.2,0.2,0.4,0.4,0.4c0.1,0.1,0.3,0.1,0.4,0.1
	c0,0,0.2,0,0.3-0.1c0.2-0.1,0.3-0.2,0.4-0.4l1-2.8c0,0,0,0,0,0c0,0,0,0,0,0v4.1h-0.6v0.7h1.4l0-4.8
	C-186.2,21.7-186.2,21.5-186.3,21.4"/>
<path class="st1" d="M-200.9,21.6h0.5v4.1c0,0,0,0.1-0.1,0.1c-0.1,0-0.1,0-0.1,0l-1.8-4.4v0l0,0c-0.1-0.2-0.3-0.4-0.4-0.4
	c-0.2-0.1-0.4-0.1-0.4-0.1c-0.2,0-0.3,0-0.5,0.1c-0.2,0.1-0.3,0.3-0.3,0.4c0,0.1,0,0.2,0,0.2v4.9h1.3v-0.7h-0.5c0,0,0-4.1,0-4.1
	c0,0,0-0.1,0.1-0.1c0.1,0,0.1,0,0.1,0l1.8,4.4l0,0c0.1,0.2,0.3,0.4,0.4,0.4l0,0c0.2,0.1,0.4,0.1,0.4,0.1c0.2,0,0.3,0,0.4-0.1
	c0.2-0.1,0.3-0.3,0.4-0.4c0-0.1,0.1-0.2,0.1-0.3V21h-1.3V21.6L-200.9,21.6z"/>
<path class="st1" d="M-102.4,21.6h0.5v4.1c0,0,0,0.1-0.1,0.1c-0.1,0-0.1,0-0.1,0l-1.8-4.4v0l0,0c-0.1-0.2-0.3-0.4-0.4-0.4
	c-0.2-0.1-0.4-0.1-0.4-0.1c-0.2,0-0.3,0-0.5,0.1c-0.2,0.1-0.3,0.3-0.3,0.4c0,0.1,0,0.2,0,0.2v4.9h1.3v-0.7h-0.5c0,0,0-4.1,0-4.1
	c0,0,0-0.1,0.1-0.1c0.1,0,0.1,0,0.1,0l1.8,4.4l0,0c0.1,0.2,0.3,0.4,0.4,0.4l0,0c0.2,0.1,0.4,0.1,0.4,0.1c0.2,0,0.3,0,0.4-0.1
	c0.2-0.1,0.3-0.3,0.4-0.4c0-0.1,0.1-0.2,0.1-0.3V21h-1.3V21.6L-102.4,21.6z"/>
<path class="st1" d="M-169,21.6h0.5v4.1c0,0,0,0.1-0.1,0.1c-0.1,0-0.1,0-0.1,0l-1.8-4.4v0l0,0c-0.1-0.2-0.3-0.4-0.4-0.4
	c-0.2-0.1-0.4-0.1-0.4-0.1c-0.2,0-0.3,0-0.5,0.1c-0.2,0.1-0.3,0.3-0.3,0.4c0,0.1-0.1,0.2-0.1,0.2v4.9h1.3v-0.7h-0.5c0,0,0-4.1,0-4.1
	c0,0,0-0.1,0.1-0.1c0.1,0,0.1,0,0.1,0l1.8,4.4l0,0c0.1,0.2,0.3,0.4,0.4,0.4l0,0c0.2,0.1,0.4,0.1,0.4,0.1c0.2,0,0.3,0,0.4-0.1
	c0.2-0.1,0.3-0.3,0.4-0.4c0-0.1,0.1-0.2,0.1-0.3V21h-1.3V21.6L-169,21.6z"/>
<path class="st1" d="M-179.1,21h-1.3v0.7h0.5v3.5v0v0c0,0,0,0,0,0c0,0.1,0,0.3-0.1,0.5c-0.1,0.1-0.1,0.1-0.2,0.2
	c-0.1,0.1-0.2,0.1-0.5,0.1h0c-0.2,0-0.4,0-0.5-0.1c-0.1-0.1-0.2-0.2-0.3-0.4c0-0.1-0.1-0.3-0.1-0.3V25l-0.8,0c0,0,0,0.1,0,0.1v0
	c0,0.1,0,0.5,0.2,0.8c0.1,0.2,0.3,0.4,0.5,0.5c0.2,0.1,0.5,0.2,0.9,0.2h0c0.3,0,0.6-0.1,0.8-0.2c0.3-0.2,0.5-0.5,0.6-0.8
	c0.1-0.3,0.1-0.5,0.1-0.6c0,0,0-0.1,0-0.1V21L-179.1,21z"/>
<path class="st1" d="M-173.6,21h-1.2v0.7h0.4v3.1c0,0.3-0.1,0.6-0.2,0.8c-0.2,0.2-0.5,0.4-1,0.4c-0.5,0-0.8-0.2-1-0.4
	c-0.2-0.2-0.2-0.5-0.2-0.8v0v-3.1h0.5V21h-1.3v3.8c0,0.4,0.1,0.8,0.4,1.3c0.3,0.4,1,0.7,1.6,0.7c0.6,0,1.3-0.3,1.6-0.7
	c0.3-0.4,0.4-0.9,0.4-1.3V21L-173.6,21z"/>
<path class="st1" d="M-155.1,22.8c-0.1,0.1-0.3,0.2-0.6,0.2c-0.2,0-1,0-1,0c-0.1,0-0.3,0.1-0.3,0.1s-0.2-0.1-0.2-0.3v-1
	c0,0,0-0.1,0-0.1c0,0,0.1,0,0.1,0l1.3,0c0.4,0,0.5,0.1,0.6,0.2c0.1,0.1,0.2,0.4,0.2,0.5C-154.9,22.6-154.9,22.7-155.1,22.8
	 M-154.5,21.4c-0.3-0.3-0.7-0.4-1.2-0.4h-1.3c-0.1,0-0.3,0-0.5,0.1c-0.1,0.1-0.2,0.2-0.3,0.3c-0.1,0.1-0.1,0.3-0.1,0.5l0,0.9
	c0,0,0,0.2,0,0.3c0,0.1,0.1,0.3,0.2,0.4c-0.1,0.1-0.1,0.1-0.1,0.2c-0.1,0.2-0.1,0.5-0.1,0.6v2.2h1.2v-0.7h-0.4c0-0.5,0-1.6,0-1.6
	s0-0.2,0.1-0.3c0.1-0.1,0.4-0.1,0.4-0.1s0.8,0,1,0h0c0,0,0.7,0,1.2-0.5c0.3-0.3,0.4-0.7,0.4-1C-154.1,22-154.2,21.7-154.5,21.4"/>
<polygon class="st1" points="-146.3,21 -147.5,21 -147.5,21.6 -147,21.6 -147,26.6 -145.9,26.6 -145.9,25.9 -146.3,25.9 -146.3,21 
	"/>
<path class="st1" d="M-143,23.8c-0.1-0.1,0-0.2,0-0.2l0,0c0.1-0.1,1.8-1.8,1.8-1.8s0.1-0.1,0.3-0.1h0.4V21h-0.4c-0.1,0-0.2,0-0.3,0
	c-0.2,0-0.3,0.1-0.5,0.3c-0.2,0.2-0.8,0.8-1.3,1.3v-0.8h0.3V21h-1.1v4.9h-0.4v0.7h1.2v-1.8l1.2,1.2v0.6h1.5L-143,23.8L-143,23.8z"/>
<path class="st1" d="M-195.4,23.8l-0.9-0.3c0.2-0.4,0.8-1.7,0.8-1.7c0,0,0,0,0.1-0.1c0.1,0,0.1,0,0.1,0.1l0,0c0,0,0.8,1.7,0.8,1.7
	L-195.4,23.8L-195.4,23.8z M-194.4,26.6h1.7l-0.9-2c0,0-0.1-0.3-0.6-0.5c0.1,0,0.3-0.1,0.3-0.1c0.1-0.1,0.1-0.2,0.1-0.3
	c0-0.1,0-0.2-0.1-0.3l-0.8-1.8c-0.2-0.3-0.5-0.5-0.8-0.5c-0.4,0-0.6,0.2-0.8,0.5l-0.8,1.8c0,0.1-0.1,0.2-0.1,0.4
	c0,0.2,0,0.3,0.2,0.4c0.1,0,0.2,0.1,0.3,0.1c-0.3,0.1-0.5,0.5-0.5,0.5l0,0l-0.8,2h1.7v-0.7h-0.5l0.5-1c0,0,0,0,0,0l0,0l1-0.3
	l1.1,0.4c0,0,0,0,0,0l0.4,1h-0.5V26.6L-194.4,26.6z"/>
<path class="st1" d="M-151.1,23.8l-0.9-0.3c0.2-0.4,0.8-1.7,0.8-1.7c0,0,0,0,0.1-0.1c0.1,0,0.1,0,0.1,0.1l0,0c0,0,0.8,1.7,0.8,1.7
	L-151.1,23.8L-151.1,23.8z M-150.1,26.6h1.7l-0.8-1.9c0,0-0.1-0.3-0.6-0.5c0.1,0,0.3-0.1,0.3-0.2c0.1-0.1,0.1-0.2,0.1-0.3
	c0-0.1,0-0.2-0.1-0.3l-0.8-1.8c-0.2-0.3-0.5-0.5-0.8-0.5c-0.4,0-0.6,0.2-0.8,0.5l-0.8,1.8c0,0.1-0.1,0.2-0.1,0.4
	c0,0.2,0,0.3,0.2,0.3c0.1,0,0.2,0.1,0.3,0.1c-0.3,0.1-0.5,0.5-0.5,0.5l0,0l-0.8,1.9h1.7v-0.7h-0.5l0.5-1c0,0,0,0,0,0l0,0l1-0.3
	l1.1,0.4c0,0,0,0,0,0s0.3,0.6,0.4,1h-0.5V26.6L-150.1,26.6z"/>
<path class="st1" d="M-133.2,23.8l-0.9-0.3c0.2-0.4,0.8-1.7,0.8-1.7c0,0,0,0,0.1-0.1c0.1,0,0.1,0,0.1,0.1l0,0c0,0,0.8,1.7,0.8,1.7
	L-133.2,23.8L-133.2,23.8z M-132.2,26.6h1.7l-0.8-1.9c0,0-0.1-0.3-0.6-0.5c0.1,0,0.3-0.1,0.3-0.2c0.1-0.1,0.1-0.2,0.1-0.3
	c0-0.1,0-0.2-0.1-0.3l-0.8-1.8c-0.2-0.3-0.5-0.5-0.8-0.5c-0.4,0-0.6,0.2-0.8,0.5l-0.8,1.8c0,0.1-0.1,0.2-0.1,0.4
	c0,0.2,0,0.3,0.2,0.3c0.1,0,0.2,0.1,0.3,0.1c-0.3,0.1-0.5,0.5-0.5,0.5l0,0l-0.8,1.9h1.7v-0.7h-0.5l0.5-1c0,0,0,0,0,0l0,0l1-0.3
	l1.1,0.4c0,0,0,0,0,0s0.3,0.6,0.4,1h-0.5V26.6L-132.2,26.6z"/>
<path class="st1" d="M-164,23.3v0.9l-0.6-0.4L-164,23.3L-164,23.3z M-162.4,22.1V21h-2.8c-0.5,0-0.9,0.4-0.9,0.9v1.2
	c0,0.3,0.2,0.5,0.3,0.7c-0.1,0.1-0.3,0.3-0.3,0.7v1.2c0,0.5,0.4,0.9,0.9,0.9h2.8v-1.1h-0.8v0.4h-2c-0.1,0-0.2-0.1-0.2-0.2l0-1.1
	c0,0,0-0.2,0.2-0.4l1.2,0.8c0,0,0.1,0.1,0.3,0.1c0.1,0,0.1,0,0.2,0c0.1,0,0.3-0.2,0.3-0.4v-1.8c0-0.2-0.1-0.3-0.2-0.4
	c-0.1,0-0.1-0.1-0.2-0.1c-0.2,0-0.3,0.1-0.3,0.1l-1.2,0.8c-0.1-0.1-0.1-0.3-0.1-0.4l0-1.2c0-0.1,0.1-0.2,0.2-0.2h2v0.4H-162.4
	L-162.4,22.1z"/>
<path class="st1" d="M-108.8,23.3v0.9l-0.6-0.4L-108.8,23.3L-108.8,23.3z M-107.2,22.1V21h-2.8c-0.5,0-0.9,0.4-0.9,0.9v1.2
	c0,0.3,0.2,0.5,0.3,0.7c-0.1,0.1-0.3,0.3-0.3,0.7v1.2c0,0.5,0.4,0.9,0.9,0.9h2.8v-1.1h-0.8v0.4h-2c-0.1,0-0.2-0.1-0.2-0.2l0-1.1
	c0,0,0-0.2,0.2-0.4l1.2,0.8c0,0,0.1,0.1,0.3,0.1c0.1,0,0.1,0,0.2,0c0.1,0,0.3-0.2,0.3-0.4v-1.8c0-0.2-0.1-0.3-0.2-0.4
	c-0.1,0-0.1-0.1-0.2-0.1c-0.2,0-0.3,0.1-0.3,0.1l-1.2,0.8c-0.1-0.1-0.1-0.3-0.1-0.4l0-1.2c0-0.1,0.1-0.2,0.2-0.2h2v0.4H-107.2
	L-107.2,22.1z"/>
<path class="st1" d="M-91.6,23.3v0.9l-0.6-0.4L-91.6,23.3L-91.6,23.3z M-90,22.1V21h-2.8c-0.5,0-0.9,0.4-0.9,0.9v1.2
	c0,0.3,0.2,0.5,0.3,0.7c-0.1,0.1-0.3,0.3-0.3,0.7v1.2c0,0.5,0.4,0.9,0.9,0.9h2.8v-1.1h-0.8v0.4h-2c-0.1,0-0.2-0.1-0.2-0.2l0-1.1
	c0,0,0-0.2,0.2-0.4l1.2,0.8c0.1,0.1,0.3,0.2,0.5,0c0.2-0.1,0.2-0.4,0.2-0.4v-1.8c0,0,0-0.3-0.2-0.4c-0.2-0.1-0.5,0-0.5,0l-1.2,0.8
	c-0.1-0.1-0.1-0.3-0.1-0.4v-1.2c0-0.1,0.1-0.2,0.2-0.2h2v0.4H-90L-90,22.1z"/>
<polygon class="st1" points="-124,22.1 -123.2,22.1 -123.2,21.6 -122.1,21.6 -122.1,26.6 -120.9,26.6 -120.9,25.9 -121.3,25.9 
	-121.3,21.6 -120.2,21.6 -120.2,22.1 -119.4,22.1 -119.4,21 -124,21 -124,22.1 "/>
<polygon class="st1" points="-99.8,22.1 -99,22.1 -99,21.6 -97.9,21.6 -97.9,26.6 -96.7,26.6 -96.7,25.9 -97.1,25.9 -97.1,21.6 
	-96,21.6 -96,22.1 -95.2,22.1 -95.2,21 -99.8,21 -99.8,22.1 "/>
<path class="st1" d="M-113.3,25.8c-0.2,0-0.7-0.1-1-0.3c-0.2-0.1-0.5-0.3-0.6-0.6c-0.2-0.3-0.3-0.6-0.3-1.2c0-0.5,0.1-0.9,0.3-1.2
	c0.2-0.4,0.6-0.6,1-0.7c0.2-0.1,0.5-0.1,0.7-0.1v0.4h0.8V21c0,0-0.4,0-0.5,0c-0.3,0-1.1,0-1.8,0.4c-0.3,0.2-0.7,0.5-0.9,0.9
	c-0.2,0.4-0.4,0.9-0.4,1.6l0,0c0,0.6,0.2,1.2,0.4,1.6c0.4,0.6,0.9,0.9,1.4,1.1h0c0.5,0.2,1,0.2,1.2,0.2l0.4,0v-1.2h-0.8V25.8
	L-113.3,25.8z"/>
<path class="st1" d="M-126.4,26.6h1.4l-2.7-2.9h0.9c0.5,0,1-0.1,1.3-0.3c0.3-0.3,0.4-0.6,0.4-1c0-0.3-0.1-0.6-0.4-0.9
	c-0.3-0.3-0.7-0.4-1.2-0.4h-1.3c-0.1,0-0.3,0-0.5,0.1c-0.1,0.1-0.2,0.2-0.3,0.3c-0.1,0.1-0.1,0.3-0.1,0.5v0.8c0,0,0,0.2,0,0.3
	c0,0.1,0.1,0.3,0.2,0.4c-0.1,0.1-0.1,0.1-0.1,0.2c-0.1,0.2-0.1,0.4-0.1,0.6v2.3h1.2v-0.8h-0.4v-1.5l1.8,1.9V26.6L-126.4,26.6z
	 M-128.2,21.7c0,0,0.1,0,0.1,0l1.3,0c0.4,0,0.5,0.1,0.6,0.2c0.1,0.1,0.2,0.2,0.2,0.4c0,0.2-0.1,0.4-0.2,0.5
	c-0.1,0.1-0.3,0.2-0.6,0.2c-0.2,0-1,0-1,0c-0.1,0-0.3,0.1-0.3,0.1s-0.2-0.1-0.2-0.3v-0.9C-128.2,21.8-128.3,21.7-128.2,21.7
	L-128.2,21.7z"/>
<path class="st1" d="M-85.4,26.6h1.4l-2.7-2.9h0.9c0.5,0,1-0.1,1.3-0.3c0.3-0.3,0.4-0.6,0.4-1c0-0.3-0.1-0.6-0.4-0.9
	c-0.3-0.3-0.7-0.4-1.2-0.4h-1.3c-0.1,0-0.3,0-0.5,0.1c-0.1,0.1-0.2,0.2-0.3,0.3c-0.1,0.1-0.1,0.3-0.1,0.5v0.8c0,0,0,0.2,0,0.3
	c0,0.1,0.1,0.3,0.2,0.4c0,0.1-0.1,0.1-0.1,0.2c-0.1,0.2-0.1,0.4-0.1,0.6v2.3h1.2v-0.8h-0.4v-1.5l1.8,1.9V26.6L-85.4,26.6z
	 M-87.2,21.7c0,0,0.1,0,0.1,0l1.3,0c0.4,0,0.5,0.1,0.6,0.2c0.1,0.1,0.2,0.2,0.2,0.4c0,0.2-0.1,0.4-0.2,0.5c-0.1,0.1-0.3,0.2-0.6,0.2
	c-0.2,0-1,0-1,0c-0.2,0-0.3,0.1-0.3,0.1s-0.2-0.1-0.2-0.3v-0.9C-87.3,21.8-87.3,21.7-87.2,21.7L-87.2,21.7z"/>
<g>
	<path class="st2" d="M-153.7,10.9c0.9,0,1.6,0.7,1.6,1.6c0,0.9-0.7,1.6-1.6,1.6c-0.9,0-1.6-0.7-1.6-1.6
		C-155.3,11.6-154.6,10.9-153.7,10.9L-153.7,10.9z"/>
	<path class="st2" d="M-153.8,10C-153.8,10-153.7,10-153.8,10C-153.7,10-153.8,10-153.8,10L-153.8,10z"/>
	<path class="st2" d="M-153.9,10L-153.9,10c0,0,0.1,0,0.1,0C-153.9,10-153.9,10-153.9,10L-153.9,10z"/>
	<path class="st2" d="M-153.9,0.3c0.6,0,1.1,0.1,1.6,0.3c0.5,0.2,0.9,0.4,1.3,0.8c0.1,0.1,0.1,0.1,0.2,0.2c0.4,0.4,1,1.4,0.9,3.1
		c0,0-0.6,0.1-0.9,0c0,0,0,0,0,0c-0.3,0-0.6-0.1-0.7-0.2c-0.4-0.2-0.7-0.5-0.8-0.9c0,0,0,0,0-0.1c-0.2-0.7-0.7-1.3-1.6-1.3
		c-0.9,0-1.5,0.5-1.5,1.5c0,0.3,0.2,0.7,0.3,0.9c0.2,0.3,0.4,0.5,0.7,0.7c0.5,0.4,0.9,0.9,1.2,1.4c0.1,0.2,0.2,0.3,0.3,0.5
		c0.1,0.2,0.2,0.5,0.2,0.7c0,0.1,0,0.1,0,0.2c0,0.1,0,0.2,0,0.3c0,0.4,0,0.7,0,1.4c0,0,0,0,0,0c0,0,0,0,0,0.1c0,0,0,0.1,0,0.1
		c0,0,0,0,0,0c-0.5,0-0.7,0-0.9,0c0,0,0,0,0,0c0,0-0.1,0-0.1,0c-0.1,0-0.2-0.1-0.2-0.1c-0.2-0.1-0.4-0.3-0.5-0.5
		c-0.3-0.5-0.1-0.9-0.7-1.7c-0.3-0.5-0.9-0.8-1.4-1.2c-0.3-0.3-0.7-0.5-1-0.9c-0.3-0.5-0.5-1.1-0.5-2
		C-158.2,2.2-157.1,0.3-153.9,0.3L-153.9,0.3z"/>
	<polygon class="st2" points="-204,-1.6 -204,-0.1 -204,15.6 -199.9,15.6 -199.9,-1.6 -204,-1.6 	"/>
	<polygon class="st2" points="-88.1,-1.6 -88.1,-0.1 -88.1,15.6 -84,15.6 -84,-1.6 -88.1,-1.6 	"/>
	<polygon class="st2" points="-134.7,7.9 -143.4,7.9 -143.4,9.7 -134.7,9.7 -134.7,7.9 	"/>
	<polygon class="st2" points="-134.7,4.3 -143.4,4.3 -143.4,6.1 -134.7,6.1 -134.7,4.3 	"/>
	<polygon class="st2" points="-162.1,6 -169.5,6 -169.5,8 -162.1,8 -162.1,6 	"/>
	<path class="st2" d="M-177.7,10.9c-0.9,0-1.6,0.7-1.6,1.6c0,0.9,0.7,1.6,1.6,1.6c0.9,0,1.6-0.7,1.6-1.6
		C-176.2,11.6-176.9,10.9-177.7,10.9L-177.7,10.9z"/>
	<path class="st2" d="M-177.7,10C-177.7,10-177.7,10-177.7,10C-177.7,10-177.7,10-177.7,10L-177.7,10z"/>
	<path class="st2" d="M-177.5,10L-177.5,10c0,0-0.1,0-0.1,0C-177.6,10-177.5,10-177.5,10L-177.5,10z"/>
	<path class="st2" d="M-177.5,0.3c-0.6,0-1.1,0.1-1.6,0.3c-0.5,0.2-0.9,0.4-1.3,0.8c-0.1,0.1-0.1,0.1-0.2,0.2
		c-0.4,0.4-1,1.4-0.9,3.1c0,0,0.6,0.1,0.9,0c0,0,0,0,0,0c0.3,0,0.6-0.1,0.7-0.2c0.4-0.2,0.7-0.5,0.8-0.9c0,0,0,0,0-0.1
		c0.2-0.7,0.7-1.3,1.6-1.3c0.9,0,1.5,0.5,1.5,1.5c0,0.3-0.2,0.7-0.3,0.9c-0.2,0.3-0.4,0.5-0.7,0.7c-0.5,0.4-0.9,0.9-1.2,1.4
		c-0.1,0.2-0.2,0.3-0.3,0.5c-0.1,0.2-0.2,0.5-0.2,0.7c0,0.1,0,0.1,0,0.2c0,0.1,0,0.2,0,0.3c0,0.4,0,0.7,0,1.4c0,0,0,0,0,0
		c0,0,0,0,0,0.1c0,0,0,0.1,0,0.1c0,0,0,0,0,0c0.5,0,0.7,0,0.9,0c0,0,0,0,0,0c0,0,0.1,0,0.1,0c0.1,0,0.2-0.1,0.2-0.1
		c0.2-0.1,0.4-0.3,0.5-0.5c0.3-0.5,0.1-0.9,0.7-1.7c0.3-0.5,0.9-0.8,1.4-1.2c0.3-0.3,0.7-0.5,1-0.9c0.3-0.5,0.5-1.1,0.5-2
		C-173.3,2.2-174.3,0.3-177.5,0.3L-177.5,0.3z"/>
	<path class="st2" d="M-107.3,3.4c0,0-0.3-0.3-0.8-0.6c-0.2-0.1-0.6-0.3-1-0.4c-0.6-0.2-1-0.3-1.1-0.3c-0.9-0.2-2-0.2-3,0.2
		c-2.1,0.8-3.3,2.4-3.5,2.8c-0.4-0.5-1.1-1.4-1.8-1.9c-1.1-0.7-2.4-1.2-3.8-1.2c-1.6,0-3,0.6-4.1,1.6c-1.1,1-1.7,2.3-1.7,3.7
		c0,1.4,0.6,2.8,1.7,3.8c0,0,0.3,0.3,0.8,0.6c0.6,0.3,2.9,1.4,5.2,0.5c2.1-0.8,3.3-2.4,3.5-2.8c0.4,0.5,1.1,1.4,1.8,1.9
		c1.1,0.7,2.4,1.2,3.8,1.2c1.6,0,3-0.6,4.1-1.6c1.1-1,1.7-2.3,1.7-3.7C-105.6,5.7-106.2,4.4-107.3,3.4L-107.3,3.4z M-120.3,10
		c-0.9,0.5-1.8,0.7-2.6,0.6c-1.1-0.1-1.8-0.5-2.3-1.1c-0.5-0.7-0.8-1.4-0.7-2.4c0.1-0.9,0.5-1.6,1.2-2.1c0.7-0.6,1.5-0.8,2.5-0.7
		c0.9,0.1,1.9,0.6,2.5,1.3c1.2,1.2,1.7,2.3,1.7,2.3S-118.8,9.1-120.3,10L-120.3,10z M-107.9,7.3c-0.1,0.9-0.5,1.6-1.2,2.1
		c-0.7,0.6-1.5,0.8-2.5,0.7c-0.9-0.1-1.9-0.6-2.5-1.3c-1.2-1.2-1.7-2.3-1.7-2.3s0.8-1.3,2.3-2.2c0.9-0.5,1.8-0.7,2.6-0.6
		c1.1,0.1,1.8,0.5,2.3,1.1C-108.1,5.6-107.8,6.4-107.9,7.3L-107.9,7.3z"/>
</g>
</svg>
