<?xml version="1.0" encoding="utf-8"?>
<!-- Generator: Adobe Illustrator 22.0.1, SVG Export Plug-In . SVG Version: 6.00 Build 0)  -->
<svg version="1.1" id="Layer_1" xmlns="http://www.w3.org/2000/svg" xmlns:xlink="http://www.w3.org/1999/xlink" x="0px" y="0px"
	 viewBox="0 0 120 39" style="enable-background:new 0 0 120 39;" xml:space="preserve">
<style type="text/css">
	.st0{fill:#FF0000;}
	.st1{fill:#FFFFFF;}
	.st2{fill:#332F2E;}
	.st3{fill:#E30013;}
</style>
<g>
	<polygon class="st0" points="181.9,47 181.9,49 181.9,71 187.6,71 187.6,47 	"/>
	<polygon class="st0" points="243.3,47 243.3,49 243.3,71 249.1,71 249.1,47 	"/>
	<path class="st0" d="M229,53.9c0,0-0.4-0.4-1.2-0.8c-0.3-0.1-0.8-0.4-1.4-0.6c-0.8-0.3-1.4-0.4-1.6-0.4c-1.3-0.2-2.8-0.3-4.3,0.3
		c-3,1.1-4.6,3.4-4.9,3.9c-0.5-0.7-1.5-2-2.6-2.7c-1.6-1-3.4-1.7-5.3-1.7c-2.2,0-4.2,0.8-5.7,2.3c-1.5,1.4-2.4,3.2-2.3,5.1
		c0,2,0.8,3.9,2.3,5.3c0,0,0.4,0.4,1.2,0.8c0.9,0.5,4.1,1.9,7.3,0.8c3-1.1,4.6-3.4,4.9-3.9c0.5,0.7,1.5,2,2.6,2.7
		c1.6,1,3.4,1.7,5.3,1.7c2.2,0,4.2-0.8,5.7-2.3c1.5-1.4,2.3-3.2,2.3-5.1C231.4,57.2,230.5,55.3,229,53.9L229,53.9z M210.7,63.1
		c-1.3,0.8-2.5,0.9-3.7,0.8c-1.5-0.2-2.5-0.7-3.2-1.6c-0.7-0.9-1.1-2-1-3.3c0.2-1.3,0.7-2.2,1.7-3s2.1-1.1,3.5-1
		c1.3,0.1,2.6,0.9,3.5,1.8c1.6,1.7,2.3,3.2,2.3,3.2S212.8,61.9,210.7,63.1L210.7,63.1z M228.1,59.5c-0.2,1.3-0.7,2.2-1.6,3
		c-1,0.8-2.1,1.1-3.5,1c-1.3-0.1-2.6-0.9-3.5-1.8c-1.6-1.7-2.3-3.2-2.3-3.2s1.1-1.9,3.2-3.1c1.3-0.8,2.5-0.9,3.7-0.8
		c1.5,0.2,2.5,0.7,3.2,1.6C227.9,57.1,228.2,58.2,228.1,59.5L228.1,59.5z"/>
</g>
<g>
	<path class="st1" d="M234.1,29l-7.9-7.6c1.4-2,2.2-4.5,2.2-7.2c-0.1-6.8-5.7-12.1-12.5-12c-6.8,0.1-12.1,5.7-12,12.5
		s5.7,12.1,12.5,12c2.7-0.1,5.1-1,7.1-2.4l7.9,7.6L234.1,29z"/>
</g>
<path class="st2" d="M30.9,36.7v-2.5h0.7v0.7h0.6v-0.7h0.7v2.5H30.9z M34.4,38.8v-1.1h-3v-0.6h3.8v1.7
	C35.2,38.8,34.4,38.8,34.4,38.8z M32.2,35.5h-0.6V36h0.6V35.5z M34.5,36.8v-1.1h-0.4v1.1h-0.7V34h0.7v1h0.4v-1.1h0.7v2.9
	C35.2,36.8,34.5,36.8,34.5,36.8z"/>
<path class="st2" d="M41,36.3h-1.2v-2.2h0.7v1.5h0.4c0.7,0,1.4-0.1,1.8-0.2V36C42.5,36.1,41.8,36.3,41,36.3z M40.4,38.8v-2h3.5v2
	H40.4z M43.2,37.4h-2v0.7h2V37.4z M43.9,35.6v1h-0.7V34h0.7v1h0.7v0.6H43.9z"/>
<path class="st2" d="M51.6,36.9v0.8h-0.8v-0.8h-2.2v-0.6h4.9v0.6H51.6z M52.8,36.1c-0.7-0.1-1.3-0.3-1.7-0.8
	c-0.3,0.4-1.1,0.7-1.7,0.8L49,35.5c0.5,0,1.5-0.3,1.7-0.8h-1.4v-0.6H53v0.6h-1.4c0.3,0.6,1.4,0.8,1.7,0.8L52.8,36.1z M49.2,38.7
	v-1.4H50V38h3.1v0.6h-3.9V38.7z"/>
<path class="st2" d="M59.2,38c-0.8,0-1.4-0.7-1.4-1.9c0-1.1,0.6-1.9,1.4-1.9c0.9,0,1.4,0.7,1.4,1.9C60.6,37.2,60.1,38,59.2,38z
	 M59.2,34.9c-0.4,0-0.7,0.6-0.7,1.2c0,0.6,0.3,1.2,0.7,1.2s0.7-0.6,0.7-1.2S59.6,34.9,59.2,34.9z M62,36.5v2.3h-0.7v-4.9H62v1.9h0.7
	v0.7H62z"/>
<path class="st2" d="M66.7,38.3v-0.6h4.9v0.6H66.7z M67.3,37.1v-2.8H71V35h-3v0.4h2.9V36H68v0.4h3V37L67.3,37.1L67.3,37.1z"/>
<path class="st2" d="M77.9,36.9c-0.3-0.2-0.6-0.5-0.9-0.9c-0.2,0.4-0.5,0.7-0.9,0.9l-0.5-0.5c0.5-0.3,1-0.9,1-1.8v-0.7h0.8v0.7
	c0,0.9,0.5,1.3,0.9,1.6L77.9,36.9z M76.7,38.7v-1.5h0.8v0.9h3v0.6H76.7z M78.6,37.4v-1.8h-0.7V35h0.7v-1h0.7v3.4H78.6z M79.6,37.5
	v-3.6h0.7v3.6H79.6z"/>
<path class="st2" d="M86.9,37.8c-0.6,0-1.7,0-1.8,0v-3.5h2.3V35h-1.6v0.7h1.5v0.6h-1.5v0.8c0,0,0.5,0,1,0c0.4,0,0.7-0.1,1-0.1v0.6
	C87.5,37.8,87.2,37.8,86.9,37.8z M88.4,38.8v-2.5h-0.7v-0.7h0.7v-1.8h0.7v4.9L88.4,38.8L88.4,38.8z"/>
<path class="st2" d="M17.7,23.4c0,0-0.1-0.2-0.3-0.3C17.3,23,17,23,17,23s-0.2,0-0.4,0.1c-0.2,0.1-0.3,0.2-0.4,0.5l-1,2.8l0,0l0,0
	l-1-2.8c-0.1-0.2-0.2-0.4-0.4-0.5C13.6,23,13.4,23,13.3,23c-0.1,0-0.3,0-0.4,0.1c-0.2,0.1-0.3,0.3-0.3,0.4s-0.1,0.2-0.1,0.3v4.8H14
	v-0.7h-0.6v-4.1l0,0l0,0l1,2.8c0.1,0.2,0.2,0.4,0.4,0.4c0.1,0.1,0.3,0.1,0.4,0.1c0,0,0.2,0,0.3-0.1c0.2-0.1,0.3-0.2,0.4-0.4l1-2.8
	l0,0l0,0v4.1h-0.6v0.7h1.4v-4.8C17.8,23.7,17.8,23.5,17.7,23.4"/>
<path class="st2" d="M3.1,23.6h0.5v4.1c0,0,0,0.1-0.1,0.1s-0.1,0-0.1,0l-1.8-4.4l0,0l0,0c0-0.2-0.2-0.4-0.4-0.4
	c-0.2-0.1-0.4-0.1-0.4-0.1c-0.2,0-0.3,0-0.5,0.1S0,23.3,0,23.4s0,0.2,0,0.2v4.9h1.3v-0.7H0.8v-4.1c0,0,0-0.1,0.1-0.1s0.1,0,0.1,0
	L2.8,28l0,0c0.1,0.2,0.3,0.4,0.4,0.4l0,0c0.2,0.1,0.4,0.1,0.4,0.1c0.2,0,0.3,0,0.4-0.1c0.2-0.1,0.3-0.3,0.4-0.4
	c0-0.1,0.1-0.2,0.1-0.3V23H3.1V23.6L3.1,23.6z"/>
<path class="st2" d="M101.6,23.6h0.5v4.1c0,0,0,0.1-0.1,0.1s-0.1,0-0.1,0l-1.8-4.4l0,0l0,0c-0.1-0.2-0.3-0.4-0.4-0.4
	c-0.2-0.1-0.4-0.1-0.4-0.1c-0.2,0-0.3,0-0.5,0.1s-0.3,0.3-0.3,0.4s0,0.2,0,0.2v4.9h1.3v-0.7h-0.5v-4.1c0,0,0-0.1,0.1-0.1
	s0.1,0,0.1,0l1.8,4.4l0,0c0.1,0.2,0.3,0.4,0.4,0.4l0,0c0.2,0.1,0.4,0.1,0.4,0.1c0.2,0,0.3,0,0.4-0.1c0.2-0.1,0.3-0.3,0.4-0.4
	c0-0.1,0.1-0.2,0.1-0.3V23h-1.3L101.6,23.6L101.6,23.6z"/>
<path class="st2" d="M35,23.6h0.5v4.1c0,0,0,0.1-0.1,0.1s-0.1,0-0.1,0l-1.8-4.4l0,0l0,0c-0.1-0.2-0.3-0.4-0.4-0.4
	c-0.2-0.1-0.4-0.1-0.4-0.1c-0.2,0-0.3,0-0.5,0.1s-0.3,0.3-0.3,0.4s-0.1,0.2-0.1,0.2v4.9h1.3v-0.7h-0.5v-4.1c0,0,0-0.1,0.1-0.1
	s0.1,0,0.1,0l1.8,4.4l0,0c0.1,0.2,0.3,0.4,0.4,0.4l0,0c0.2,0.1,0.4,0.1,0.4,0.1c0.2,0,0.3,0,0.4-0.1c0.2-0.1,0.3-0.3,0.4-0.4
	c0-0.1,0.1-0.2,0.1-0.3V23H35V23.6L35,23.6z"/>
<path class="st2" d="M24.9,23h-1.3v0.7h0.5v3.5l0,0l0,0l0,0c0,0.1,0,0.3-0.1,0.5c-0.1,0.1-0.1,0.1-0.2,0.2S23.6,28,23.3,28l0,0
	c-0.2,0-0.4,0-0.5-0.1s-0.2-0.2-0.3-0.4c0-0.1-0.1-0.3-0.1-0.3V27h-0.8v0.1l0,0c0,0.1,0,0.5,0.2,0.8c0.1,0.2,0.3,0.4,0.5,0.5
	s0.5,0.2,0.9,0.2l0,0c0.3,0,0.6-0.1,0.8-0.2c0.3-0.2,0.5-0.5,0.6-0.8s0.1-0.5,0.1-0.6v-0.1V23H24.9z"/>
<path class="st2" d="M30.4,23h-1.2v0.7h0.4v3.1c0,0.3-0.1,0.6-0.2,0.8c-0.2,0.2-0.5,0.4-1,0.4s-0.8-0.2-1-0.4
	c-0.2-0.2-0.2-0.5-0.2-0.8l0,0v-3.1h0.5V23h-1.3v3.8c0,0.4,0.1,0.8,0.4,1.3c0.3,0.4,1,0.7,1.6,0.7s1.3-0.3,1.6-0.7
	c0.3-0.4,0.4-0.9,0.4-1.3L30.4,23L30.4,23z"/>
<path class="st2" d="M48.9,24.8c-0.1,0.1-0.3,0.2-0.6,0.2c-0.2,0-1,0-1,0c-0.1,0-0.3,0.1-0.3,0.1s-0.2-0.1-0.2-0.3v-1v-0.1h0.1h1.3
	c0.4,0,0.5,0.1,0.6,0.2s0.2,0.4,0.2,0.5C49.1,24.6,49.1,24.7,48.9,24.8 M49.5,23.4c-0.3-0.3-0.7-0.4-1.2-0.4H47
	c-0.1,0-0.3,0-0.5,0.1c-0.1,0.1-0.2,0.2-0.3,0.3c-0.1,0.1-0.1,0.3-0.1,0.5v0.9c0,0,0,0.2,0,0.3c0,0.1,0.1,0.3,0.2,0.4
	c-0.1,0.1-0.1,0.1-0.1,0.2c-0.1,0.2-0.1,0.5-0.1,0.6v2.2h1.2v-0.7h-0.4c0-0.5,0-1.6,0-1.6s0-0.2,0.1-0.3c0.1-0.1,0.4-0.1,0.4-0.1
	s0.8,0,1,0l0,0c0,0,0.7,0,1.2-0.5c0.3-0.3,0.4-0.7,0.4-1C49.9,24,49.8,23.7,49.5,23.4"/>
<polygon class="st2" points="57.7,23 56.5,23 56.5,23.6 57,23.6 57,28.6 58.1,28.6 58.1,27.9 57.7,27.9 "/>
<path class="st2" d="M61,25.8c-0.1-0.1,0-0.2,0-0.2l0,0c0.1-0.1,1.8-1.8,1.8-1.8s0.1-0.1,0.3-0.1h0.4V23h-0.4c-0.1,0-0.2,0-0.3,0
	c-0.2,0-0.3,0.1-0.5,0.3c-0.2,0.2-0.8,0.8-1.3,1.3v-0.8h0.3V23h-1.1v4.9h-0.4v0.7H61v-1.8l1.2,1.2v0.6h1.5L61,25.8L61,25.8z"/>
<path class="st2" d="M8.6,25.8l-0.9-0.3c0.2-0.4,0.8-1.7,0.8-1.7s0,0,0.1-0.1c0.1,0,0.1,0,0.1,0.1l0,0l0.8,1.7L8.6,25.8L8.6,25.8z
	 M9.6,28.6h1.7l-0.9-2c0,0-0.1-0.3-0.6-0.5c0.1,0,0.3-0.1,0.3-0.1c0.1-0.1,0.1-0.2,0.1-0.3c0-0.1,0-0.2-0.1-0.3l-0.8-1.8
	C9.2,23.1,8.9,23,8.6,23c-0.4,0-0.6,0.2-0.8,0.5L7,25.3c0,0.1-0.1,0.2-0.1,0.4c0,0.2,0,0.3,0.2,0.4c0.1,0,0.2,0.1,0.3,0.1
	c-0.3,0.1-0.5,0.5-0.5,0.5l0,0l-0.8,2h1.7V28H7l0.5-1l0,0l0,0l1-0.3l1.1,0.4l0,0l0.4,1H9.6V28.6L9.6,28.6z"/>
<path class="st2" d="M52.9,25.8L52,25.5c0.2-0.4,0.8-1.7,0.8-1.7s0,0,0.1-0.1c0.1,0,0.1,0,0.1,0.1l0,0l0.8,1.7L52.9,25.8L52.9,25.8z
	 M53.9,28.6h1.7l-0.8-1.9c0,0-0.1-0.3-0.6-0.5c0.1,0,0.3-0.1,0.3-0.2c0.1-0.1,0.1-0.2,0.1-0.3c0-0.1,0-0.2-0.1-0.3l-0.8-1.8
	c-0.2-0.3-0.5-0.5-0.8-0.5c-0.4,0-0.6,0.2-0.8,0.5l-0.8,1.8c0,0.1-0.1,0.2-0.1,0.4c0,0.2,0,0.3,0.2,0.3c0.1,0,0.2,0.1,0.3,0.1
	c-0.3,0.1-0.5,0.5-0.5,0.5l0,0l-0.8,1.9h1.7v-0.7h-0.5l0.5-1l0,0l0,0l1-0.3l1.1,0.4l0,0c0,0,0.3,0.6,0.4,1h-0.5v0.6H53.9z"/>
<path class="st2" d="M70.8,25.8l-0.9-0.3c0.2-0.4,0.8-1.7,0.8-1.7s0,0,0.1-0.1c0.1,0,0.1,0,0.1,0.1l0,0l0.8,1.7L70.8,25.8L70.8,25.8
	z M71.8,28.6h1.7l-0.8-1.9c0,0-0.1-0.3-0.6-0.5c0.1,0,0.3-0.1,0.3-0.2c0.1-0.1,0.1-0.2,0.1-0.3c0-0.1,0-0.2-0.1-0.3l-0.8-1.8
	c-0.2-0.3-0.5-0.5-0.8-0.5c-0.4,0-0.6,0.2-0.8,0.5l-0.8,1.8c0,0.1-0.1,0.2-0.1,0.4c0,0.2,0,0.3,0.2,0.3c0.1,0,0.2,0.1,0.3,0.1
	c-0.3,0.1-0.5,0.5-0.5,0.5l0,0l-0.8,1.9H70v-0.7h-0.5l0.5-1l0,0l0,0l1-0.3l1.1,0.4l0,0c0,0,0.3,0.6,0.4,1H72v0.6H71.8z"/>
<path class="st2" d="M40,25.3v0.9l-0.6-0.4L40,25.3L40,25.3z M41.6,24.1V23h-2.8c-0.5,0-0.9,0.4-0.9,0.9v1.2c0,0.3,0.2,0.5,0.3,0.7
	c-0.1,0.1-0.3,0.3-0.3,0.7v1.2c0,0.5,0.4,0.9,0.9,0.9h2.8v-1.1h-0.8v0.4h-2c-0.1,0-0.2-0.1-0.2-0.2v-1.1c0,0,0-0.2,0.2-0.4L40,27
	c0,0,0.1,0.1,0.3,0.1c0.1,0,0.1,0,0.2,0c0.1,0,0.3-0.2,0.3-0.4v-1.8c0-0.2-0.1-0.3-0.2-0.4c-0.1,0-0.1-0.1-0.2-0.1
	c-0.2,0-0.3,0.1-0.3,0.1l-1.2,0.8c-0.1-0.1-0.1-0.3-0.1-0.4v-1.2c0-0.1,0.1-0.2,0.2-0.2h2v0.4h0.6V24.1z"/>
<path class="st2" d="M95.2,25.3v0.9l-0.6-0.4L95.2,25.3L95.2,25.3z M96.8,24.1V23H94c-0.5,0-0.9,0.4-0.9,0.9v1.2
	c0,0.3,0.2,0.5,0.3,0.7c-0.1,0.1-0.3,0.3-0.3,0.7v1.2c0,0.5,0.4,0.9,0.9,0.9h2.8v-1.1H96v0.4h-2c-0.1,0-0.2-0.1-0.2-0.2v-1.1
	c0,0,0-0.2,0.2-0.4l1.2,0.8c0,0,0.1,0.1,0.3,0.1c0.1,0,0.1,0,0.2,0s0.3-0.2,0.3-0.4v-1.8c0-0.2-0.1-0.3-0.2-0.4
	c-0.1,0-0.1-0.1-0.2-0.1c-0.2,0-0.3,0.1-0.3,0.1L94,25.4c-0.1-0.1-0.1-0.3-0.1-0.4v-1.2c0-0.1,0.1-0.2,0.2-0.2h2V24h0.7V24.1z"/>
<path class="st2" d="M112.4,25.3v0.9l-0.6-0.4L112.4,25.3L112.4,25.3z M114,24.1V23h-2.8c-0.5,0-0.9,0.4-0.9,0.9v1.2
	c0,0.3,0.2,0.5,0.3,0.7c-0.1,0.1-0.3,0.3-0.3,0.7v1.2c0,0.5,0.4,0.9,0.9,0.9h2.8v-1.1h-0.8v0.4h-2c-0.1,0-0.2-0.1-0.2-0.2v-1.1
	c0,0,0-0.2,0.2-0.4l1.2,0.8c0.1,0.1,0.3,0.2,0.5,0c0.2-0.1,0.2-0.4,0.2-0.4v-1.8c0,0,0-0.3-0.2-0.4s-0.5,0-0.5,0l-1.2,0.8
	c-0.1-0.1-0.1-0.3-0.1-0.4v-1.2c0-0.1,0.1-0.2,0.2-0.2h2v0.4h0.7V24.1z"/>
<polygon class="st2" points="80,24.1 80.8,24.1 80.8,23.6 81.9,23.6 81.9,28.6 83.1,28.6 83.1,27.9 82.7,27.9 82.7,23.6 83.8,23.6 
	83.8,24.1 84.6,24.1 84.6,23 80,23 "/>
<polygon class="st2" points="104.2,24.1 105,24.1 105,23.6 106.1,23.6 106.1,28.6 107.3,28.6 107.3,27.9 106.9,27.9 106.9,23.6 
	108,23.6 108,24.1 108.8,24.1 108.8,23 104.2,23 "/>
<path class="st2" d="M90.7,27.8c-0.2,0-0.7-0.1-1-0.3c-0.2-0.1-0.5-0.3-0.6-0.6c-0.2-0.3-0.3-0.6-0.3-1.2c0-0.5,0.1-0.9,0.3-1.2
	c0.2-0.4,0.6-0.6,1-0.7c0.2-0.1,0.5-0.1,0.7-0.1v0.4h0.8V23c0,0-0.4,0-0.5,0c-0.3,0-1.1,0-1.8,0.4c-0.3,0.2-0.7,0.5-0.9,0.9
	c-0.2,0.4-0.4,0.9-0.4,1.6l0,0c0,0.6,0.2,1.2,0.4,1.6c0.4,0.6,0.9,0.9,1.4,1.1l0,0c0.5,0.2,1,0.2,1.2,0.2h0.4v-1.2h-0.8v0.2H90.7z"
	/>
<path class="st2" d="M77.6,28.6H79l-2.7-2.9h0.9c0.5,0,1-0.1,1.3-0.3c0.3-0.3,0.4-0.6,0.4-1c0-0.3-0.1-0.6-0.4-0.9s-0.7-0.4-1.2-0.4
	H76c-0.1,0-0.3,0-0.5,0.1c-0.1,0.1-0.2,0.2-0.3,0.3C75,23.6,75,23.7,75,23.9v0.8c0,0,0,0.2,0,0.3c0,0.1,0.1,0.3,0.2,0.4
	c-0.1,0.1-0.1,0.1-0.1,0.2C75,25.9,75,26.1,75,26.3v2.3h1.2v-0.8h-0.4v-1.5l1.8,1.9V28.6L77.6,28.6z M75.8,23.7L75.8,23.7h1.4
	c0.4,0,0.5,0.1,0.6,0.2s0.2,0.2,0.2,0.4c0,0.2-0.1,0.4-0.2,0.5S77.5,25,77.2,25c-0.2,0-1,0-1,0c-0.1,0-0.3,0.1-0.3,0.1
	s-0.2-0.1-0.2-0.3v-0.9C75.8,23.8,75.7,23.7,75.8,23.7L75.8,23.7z"/>
<path class="st2" d="M118.6,28.6h1.4l-2.7-2.9h0.9c0.5,0,1-0.1,1.3-0.3c0.3-0.3,0.4-0.6,0.4-1c0-0.3-0.1-0.6-0.4-0.9
	s-0.7-0.4-1.2-0.4H117c-0.1,0-0.3,0-0.5,0.1c-0.1,0.1-0.2,0.2-0.3,0.3c-0.1,0.1-0.1,0.3-0.1,0.5v0.8c0,0,0,0.2,0,0.3
	c0,0.1,0.1,0.3,0.2,0.4c0,0.1-0.1,0.1-0.1,0.2c-0.1,0.2-0.1,0.4-0.1,0.6v2.3h1.2v-0.8h-0.4v-1.5l1.8,1.9v0.4H118.6z M116.8,23.7
	L116.8,23.7h1.4c0.4,0,0.5,0.1,0.6,0.2s0.2,0.2,0.2,0.4c0,0.2-0.1,0.4-0.2,0.5s-0.3,0.2-0.6,0.2c-0.2,0-1,0-1,0
	c-0.2,0-0.3,0.1-0.3,0.1s-0.2-0.1-0.2-0.3v-0.9C116.7,23.8,116.7,23.7,116.8,23.7L116.8,23.7z"/>
<path class="st3" d="M50.3,12.7c0.9,0,1.6,0.7,1.6,1.6c0,0.9-0.7,1.6-1.6,1.6c-0.9,0-1.6-0.7-1.6-1.6S49.4,12.7,50.3,12.7L50.3,12.7
	z"/>
<path class="st3" d="M50.2,11.8C50.2,11.8,50.3,11.8,50.2,11.8C50.3,11.8,50.2,11.8,50.2,11.8L50.2,11.8z"/>
<path class="st3" d="M50.1,11.7L50.1,11.7L50.1,11.7C50.1,11.7,50.1,11.7,50.1,11.7L50.1,11.7z"/>
<path class="st3" d="M50.1,2c0.6,0,1.1,0.1,1.6,0.3s0.9,0.4,1.3,0.8c0.1,0.1,0.1,0.1,0.2,0.2c0.4,0.4,1,1.4,0.9,3.1
	c0,0-0.6,0.1-0.9,0l0,0c-0.3,0-0.6-0.1-0.7-0.2c-0.4-0.2-0.7-0.5-0.8-0.9c0,0,0,0,0-0.1C51.4,4.5,50.8,4,50,4
	c-0.9,0-1.5,0.5-1.5,1.5c0,0.3,0.2,0.7,0.3,0.9c0.2,0.3,0.4,0.5,0.7,0.7C50,7.5,50.4,8,50.7,8.5C50.8,8.7,50.9,8.8,51,9
	s0.2,0.5,0.2,0.7c0,0.1,0,0.1,0,0.2c0,0.1,0,0.2,0,0.3c0,0.4,0,0.7,0,1.4l0,0c0,0,0,0,0,0.1v0.1l0,0c-0.5,0-0.7,0-0.9,0l0,0h-0.1
	c-0.1,0-0.2-0.1-0.2-0.1c-0.2-0.1-0.4-0.3-0.5-0.5c-0.3-0.5-0.1-0.9-0.7-1.7c-0.3-0.5-0.9-0.8-1.4-1.2c-0.3-0.3-0.7-0.5-1-0.9
	c-0.3-0.5-0.5-1.1-0.5-2C45.8,4,46.9,2,50.1,2L50.1,2z"/>
<polygon class="st3" points="0,0.2 0,1.6 0,17.3 4.1,17.3 4.1,0.2 "/>
<polygon class="st3" points="115.9,0.2 115.9,1.6 115.9,17.3 120,17.3 120,0.2 "/>
<polygon class="st3" points="69.3,9.6 60.6,9.6 60.6,11.5 69.3,11.5 "/>
<polygon class="st3" points="69.3,6 60.6,6 60.6,7.8 69.3,7.8 "/>
<polygon class="st3" points="41.9,7.7 34.5,7.7 34.5,9.7 41.9,9.7 "/>
<path class="st3" d="M26.3,12.7c-0.9,0-1.6,0.7-1.6,1.6c0,0.9,0.7,1.6,1.6,1.6s1.6-0.7,1.6-1.6C27.8,13.4,27.1,12.7,26.3,12.7
	L26.3,12.7z"/>
<path class="st3" d="M26.3,11.8L26.3,11.8L26.3,11.8L26.3,11.8z"/>
<path class="st3" d="M26.5,11.7L26.5,11.7h-0.1H26.5L26.5,11.7z"/>
<path class="st3" d="M26.5,2c-0.6,0-1.1,0.1-1.6,0.3S24,2.7,23.6,3.1c-0.1,0.1-0.1,0.1-0.2,0.2c-0.4,0.4-1,1.4-0.9,3.1
	c0,0,0.6,0.1,0.9,0l0,0c0.3,0,0.6-0.1,0.7-0.2c0.4-0.2,0.7-0.5,0.8-0.9c0,0,0,0,0-0.1C25.2,4.5,25.7,4,26.6,4s1.5,0.5,1.5,1.5
	c0,0.3-0.2,0.7-0.3,0.9c-0.2,0.3-0.4,0.5-0.7,0.7c-0.5,0.4-0.9,0.9-1.2,1.4c-0.1,0.2-0.2,0.3-0.3,0.5c-0.1,0.2-0.2,0.5-0.2,0.7
	c0,0.1,0,0.1,0,0.2c0,0.1,0,0.2,0,0.3c0,0.4,0,0.7,0,1.4l0,0c0,0,0,0,0,0.1v0.1l0,0c0.5,0,0.7,0,0.9,0l0,0h0.1
	c0.1,0,0.2-0.1,0.2-0.1c0.2-0.1,0.4-0.3,0.5-0.5c0.3-0.5,0.1-0.9,0.7-1.7c0.3-0.5,0.9-0.8,1.4-1.2c0.3-0.3,0.7-0.5,1-0.9
	c0.3-0.5,0.5-1.1,0.5-2C30.7,4,29.7,2,26.5,2L26.5,2z"/>
<path class="st3" d="M96.7,5.1c0,0-0.3-0.3-0.8-0.6c-0.2-0.1-0.6-0.3-1-0.4c-0.6-0.2-1-0.3-1.1-0.3c-0.9-0.2-2-0.2-3,0.2
	c-2.1,0.8-3.3,2.4-3.5,2.8c-0.4-0.5-1.1-1.4-1.8-1.9c-1.1-0.7-2.4-1.2-3.8-1.2c-1.6,0-3,0.6-4.1,1.6S75.9,7.6,75.9,9
	s0.6,2.8,1.7,3.8c0,0,0.3,0.3,0.8,0.6c0.6,0.3,2.9,1.4,5.2,0.5c2.1-0.8,3.3-2.4,3.5-2.8c0.4,0.5,1.1,1.4,1.8,1.9
	c1.1,0.7,2.4,1.2,3.8,1.2c1.6,0,3-0.6,4.1-1.6s1.7-2.3,1.7-3.7C98.4,7.4,97.8,6.1,96.7,5.1L96.7,5.1z M83.7,11.7
	c-0.9,0.5-1.8,0.7-2.6,0.6c-1.1-0.1-1.8-0.5-2.3-1.1c-0.5-0.7-0.8-1.4-0.7-2.4c0.1-0.9,0.5-1.6,1.2-2.1C80,6.1,80.8,5.9,81.8,6
	c0.9,0.1,1.9,0.6,2.5,1.3C85.5,8.5,86,9.6,86,9.6S85.2,10.8,83.7,11.7L83.7,11.7z M96.1,9.1c-0.1,0.9-0.5,1.6-1.2,2.1
	c-0.7,0.6-1.5,0.8-2.5,0.7c-0.9-0.1-1.9-0.6-2.5-1.3c-1.2-1.2-1.7-2.3-1.7-2.3S89,7,90.5,6.1c0.9-0.5,1.8-0.7,2.6-0.6
	c1.1,0.1,1.8,0.5,2.3,1.1C95.9,7.4,96.2,8.1,96.1,9.1L96.1,9.1z"/>
</svg>
