<?xml version="1.0" encoding="utf-8"?>
<!-- Generator: Adobe Illustrator 22.0.1, SVG Export Plug-In . SVG Version: 6.00 Build 0)  -->
<svg version="1.1" id="Layer_1" xmlns="http://www.w3.org/2000/svg" xmlns:xlink="http://www.w3.org/1999/xlink" x="0px" y="0px"
	 viewBox="0 0 120 17" style="enable-background:new 0 0 120 17;" xml:space="preserve">
<style type="text/css">
	.st0{fill:#FF0000;}
	.st1{fill:#FFFFFF;}
	.st2{fill:#E30013;}
</style>
<g>
	<polygon class="st0" points="181.9,46.5 181.9,48.5 181.9,70.5 187.6,70.5 187.6,46.5 181.9,46.5 	"/>
	<polygon class="st0" points="243.3,46.5 243.3,48.5 243.3,70.5 249.1,70.5 249.1,46.5 243.3,46.5 	"/>
	<path class="st0" d="M229,53.4c0,0-0.4-0.4-1.2-0.8c-0.3-0.1-0.8-0.4-1.4-0.6c-0.8-0.3-1.4-0.4-1.6-0.4c-1.3-0.2-2.8-0.3-4.3,0.3
		c-3,1.1-4.6,3.4-4.9,3.9c-0.5-0.7-1.5-2-2.6-2.7c-1.6-1-3.4-1.7-5.3-1.7c-2.2,0-4.2,0.8-5.7,2.3c-1.5,1.4-2.4,3.2-2.3,5.1
		c0,2,0.8,3.9,2.3,5.3c0,0,0.4,0.4,1.2,0.8c0.9,0.5,4.1,1.9,7.3,0.8c3-1.1,4.6-3.4,4.9-3.9c0.5,0.7,1.5,2,2.6,2.7
		c1.6,1,3.4,1.7,5.3,1.7c2.2,0,4.2-0.8,5.7-2.3c1.5-1.4,2.3-3.2,2.3-5.1C231.4,56.7,230.5,54.8,229,53.4L229,53.4z M210.7,62.6
		c-1.3,0.8-2.5,0.9-3.7,0.8c-1.5-0.2-2.5-0.7-3.2-1.6c-0.7-0.9-1.1-2-1-3.3c0.2-1.3,0.7-2.2,1.7-3c1-0.8,2.1-1.1,3.5-1
		c1.3,0.1,2.6,0.9,3.5,1.8c1.6,1.7,2.3,3.2,2.3,3.2S212.8,61.4,210.7,62.6L210.7,62.6z M228.1,59c-0.2,1.3-0.7,2.2-1.6,3
		c-1,0.8-2.1,1.1-3.5,1c-1.3-0.1-2.6-0.9-3.5-1.8c-1.6-1.7-2.3-3.2-2.3-3.2s1.1-1.9,3.2-3.1c1.3-0.8,2.5-0.9,3.7-0.8
		c1.5,0.2,2.5,0.7,3.2,1.6C227.9,56.6,228.2,57.7,228.1,59L228.1,59z"/>
</g>
<g>
	<path class="st1" d="M234.1,28.5l-7.9-7.6c1.4-2,2.2-4.5,2.2-7.2c-0.1-6.8-5.7-12.1-12.5-12c-6.8,0.1-12.1,5.7-12,12.5
		c0.1,6.8,5.7,12.1,12.5,12c2.7-0.1,5.1-1,7.1-2.4l7.9,7.6L234.1,28.5z"/>
</g>
<path class="st1" d="M30.9,36.2v-2.5h0.7v0.7h0.6v-0.7h0.7v2.5H30.9z M34.4,38.3v-1.1h-3v-0.6h3.8v1.7H34.4z M32.2,35h-0.6v0.6h0.6
	V35z M34.5,36.3v-1.1h-0.4v1.1h-0.7v-2.8h0.7v1h0.4v-1.1h0.7v2.9H34.5z"/>
<path class="st1" d="M41,35.8l-1.2,0v-2.2h0.7v1.5l0.4,0c0.7,0,1.4-0.1,1.8-0.2v0.6C42.5,35.6,41.8,35.8,41,35.8z M40.4,38.3v-2h3.5
	v2H40.4z M43.2,36.9h-2v0.7h2V36.9z M43.9,35.1v1h-0.7v-2.6h0.7v1h0.7v0.6H43.9z"/>
<path class="st1" d="M51.6,36.4v0.8h-0.8v-0.8h-2.2v-0.6h4.9v0.6H51.6z M52.8,35.6c-0.7-0.1-1.3-0.3-1.7-0.8
	c-0.3,0.4-1.1,0.7-1.7,0.8L49,35c0.5,0,1.5-0.3,1.7-0.8h-1.4v-0.6H53v0.6h-1.4c0.3,0.6,1.4,0.8,1.7,0.8L52.8,35.6z M49.2,38.2v-1.4
	H50v0.7h3.1v0.6H49.2z"/>
<path class="st1" d="M59.2,37.5c-0.8,0-1.4-0.7-1.4-1.9c0-1.1,0.6-1.9,1.4-1.9c0.9,0,1.4,0.7,1.4,1.9C60.6,36.7,60.1,37.5,59.2,37.5
	z M59.2,34.4c-0.4,0-0.7,0.6-0.7,1.2c0,0.6,0.3,1.2,0.7,1.2c0.4,0,0.7-0.6,0.7-1.2C59.9,35,59.6,34.4,59.2,34.4z M62,36v2.3h-0.7
	v-4.9H62v1.9h0.7V36H62z"/>
<path class="st1" d="M66.7,37.8v-0.6h4.9v0.6H66.7z M67.3,36.6v-2.8h3.7v0.6H68v0.4h2.9v0.6H68V36h3v0.6H67.3z"/>
<path class="st1" d="M77.9,36.4c-0.3-0.2-0.6-0.5-0.9-0.9c-0.2,0.4-0.5,0.7-0.9,0.9L75.6,36c0.5-0.3,1-0.9,1-1.8v-0.7h0.8v0.7
	c0,0.9,0.5,1.3,0.9,1.6L77.9,36.4z M76.7,38.2v-1.5h0.8v0.9h3v0.6H76.7z M78.6,36.9v-1.8h-0.7v-0.7h0.7v-0.9h0.7v3.4H78.6z M79.6,37
	v-3.6h0.7V37H79.6z"/>
<path class="st1" d="M86.9,37.3c-0.6,0-1.7,0-1.8,0v-3.5h2.3v0.6h-1.6v0.7h1.5v0.6h-1.5v0.8c0,0,0.5,0,1,0c0.4,0,0.7-0.1,1-0.1v0.6
	C87.5,37.3,87.2,37.3,86.9,37.3z M88.4,38.3v-2.5h-0.7v-0.7h0.7v-1.8h0.7v4.9H88.4z"/>
<path class="st1" d="M17.7,22.9c0,0-0.1-0.2-0.3-0.3c-0.1-0.1-0.4-0.1-0.4-0.1c0,0-0.2,0-0.4,0.1c-0.2,0.1-0.3,0.2-0.4,0.5l-1,2.8
	c0,0,0,0,0,0c0,0,0,0,0,0l-1-2.8c-0.1-0.2-0.2-0.4-0.4-0.5c-0.1-0.1-0.3-0.1-0.4-0.1c-0.1,0-0.3,0-0.4,0.1c-0.2,0.1-0.3,0.3-0.3,0.4
	c0,0.1-0.1,0.2-0.1,0.3v4.8H14v-0.7h-0.6v-4.1c0,0,0,0,0,0c0,0,0,0,0,0l1,2.8c0.1,0.2,0.2,0.4,0.4,0.4c0.1,0.1,0.3,0.1,0.4,0.1
	c0,0,0.2,0,0.3-0.1c0.2-0.1,0.3-0.2,0.4-0.4l1-2.8c0,0,0,0,0,0c0,0,0,0,0,0v4.1h-0.6v0.7h1.4l0-4.8C17.8,23.2,17.8,23,17.7,22.9"/>
<path class="st1" d="M3.1,23.1h0.5v4.1c0,0,0,0.1-0.1,0.1c-0.1,0-0.1,0-0.1,0l-1.8-4.4v0l0,0c-0.1-0.2-0.3-0.4-0.4-0.4
	c-0.2-0.1-0.4-0.1-0.4-0.1c-0.2,0-0.3,0-0.5,0.1c-0.2,0.1-0.3,0.3-0.3,0.4c0,0.1,0,0.2,0,0.2v4.9h1.3v-0.7H0.8c0,0,0-4.1,0-4.1
	c0,0,0-0.1,0.1-0.1c0.1,0,0.1,0,0.1,0l1.8,4.4l0,0C2.9,27.9,3,28,3.2,28.1l0,0c0.2,0.1,0.4,0.1,0.4,0.1c0.2,0,0.3,0,0.4-0.1
	c0.2-0.1,0.3-0.3,0.4-0.4c0-0.1,0.1-0.2,0.1-0.3v-4.9H3.1V23.1L3.1,23.1z"/>
<path class="st1" d="M101.6,23.1h0.5v4.1c0,0,0,0.1-0.1,0.1c-0.1,0-0.1,0-0.1,0l-1.8-4.4v0l0,0c-0.1-0.2-0.3-0.4-0.4-0.4
	c-0.2-0.1-0.4-0.1-0.4-0.1c-0.2,0-0.3,0-0.5,0.1c-0.2,0.1-0.3,0.3-0.3,0.4c0,0.1,0,0.2,0,0.2v4.9h1.3v-0.7h-0.5c0,0,0-4.1,0-4.1
	c0,0,0-0.1,0.1-0.1c0.1,0,0.1,0,0.1,0l1.8,4.4l0,0c0.1,0.2,0.3,0.4,0.4,0.4l0,0c0.2,0.1,0.4,0.1,0.4,0.1c0.2,0,0.3,0,0.4-0.1
	c0.2-0.1,0.3-0.3,0.4-0.4c0-0.1,0.1-0.2,0.1-0.3v-4.9h-1.3V23.1L101.6,23.1z"/>
<path class="st1" d="M35,23.1h0.5v4.1c0,0,0,0.1-0.1,0.1c-0.1,0-0.1,0-0.1,0l-1.8-4.4v0l0,0c-0.1-0.2-0.3-0.4-0.4-0.4
	c-0.2-0.1-0.4-0.1-0.4-0.1c-0.2,0-0.3,0-0.5,0.1c-0.2,0.1-0.3,0.3-0.3,0.4c0,0.1-0.1,0.2-0.1,0.2v4.9h1.3v-0.7h-0.5c0,0,0-4.1,0-4.1
	c0,0,0-0.1,0.1-0.1c0.1,0,0.1,0,0.1,0l1.8,4.4l0,0c0.1,0.2,0.3,0.4,0.4,0.4l0,0c0.2,0.1,0.4,0.1,0.4,0.1c0.2,0,0.3,0,0.4-0.1
	c0.2-0.1,0.3-0.3,0.4-0.4c0-0.1,0.1-0.2,0.1-0.3v-4.9H35V23.1L35,23.1z"/>
<path class="st1" d="M24.9,22.5h-1.3v0.7h0.5v3.5v0v0c0,0,0,0,0,0c0,0.1,0,0.3-0.1,0.5c-0.1,0.1-0.1,0.1-0.2,0.2
	c-0.1,0.1-0.2,0.1-0.5,0.1h0c-0.2,0-0.4,0-0.5-0.1c-0.1-0.1-0.2-0.2-0.3-0.4c0-0.1-0.1-0.3-0.1-0.3v-0.1l-0.8,0c0,0,0,0.1,0,0.1v0
	c0,0.1,0,0.5,0.2,0.8c0.1,0.2,0.3,0.4,0.5,0.5c0.2,0.1,0.5,0.2,0.9,0.2h0c0.3,0,0.6-0.1,0.8-0.2c0.3-0.2,0.5-0.5,0.6-0.8
	c0.1-0.3,0.1-0.5,0.1-0.6c0,0,0-0.1,0-0.1V22.5L24.9,22.5z"/>
<path class="st1" d="M30.4,22.5h-1.2v0.7h0.4v3.1c0,0.3-0.1,0.6-0.2,0.8c-0.2,0.2-0.5,0.4-1,0.4c-0.5,0-0.8-0.2-1-0.4
	c-0.2-0.2-0.2-0.5-0.2-0.8v0v-3.1h0.5v-0.7h-1.3v3.8c0,0.4,0.1,0.8,0.4,1.3c0.3,0.4,1,0.7,1.6,0.7c0.6,0,1.3-0.3,1.6-0.7
	c0.3-0.4,0.4-0.9,0.4-1.3V22.5L30.4,22.5z"/>
<path class="st1" d="M48.9,24.3c-0.1,0.1-0.3,0.2-0.6,0.2c-0.2,0-1,0-1,0c-0.1,0-0.3,0.1-0.3,0.1s-0.2-0.1-0.2-0.3v-1
	c0,0,0-0.1,0-0.1c0,0,0.1,0,0.1,0l1.3,0c0.4,0,0.5,0.1,0.6,0.2c0.1,0.1,0.2,0.4,0.2,0.5C49.1,24.1,49.1,24.2,48.9,24.3 M49.5,22.9
	c-0.3-0.3-0.7-0.4-1.2-0.4H47c-0.1,0-0.3,0-0.5,0.1c-0.1,0.1-0.2,0.2-0.3,0.3c-0.1,0.1-0.1,0.3-0.1,0.5l0,0.9c0,0,0,0.2,0,0.3
	c0,0.1,0.1,0.3,0.2,0.4c-0.1,0.1-0.1,0.1-0.1,0.2c-0.1,0.2-0.1,0.5-0.1,0.6v2.2h1.2v-0.7h-0.4c0-0.5,0-1.6,0-1.6s0-0.2,0.1-0.3
	c0.1-0.1,0.4-0.1,0.4-0.1s0.8,0,1,0h0c0,0,0.7,0,1.2-0.5c0.3-0.3,0.4-0.7,0.4-1C49.9,23.5,49.8,23.2,49.5,22.9"/>
<polygon class="st1" points="57.7,22.5 56.5,22.5 56.5,23.1 57,23.1 57,28.1 58.1,28.1 58.1,27.4 57.7,27.4 57.7,22.5 "/>
<path class="st1" d="M61,25.3c-0.1-0.1,0-0.2,0-0.2l0,0c0.1-0.1,1.8-1.8,1.8-1.8s0.1-0.1,0.3-0.1h0.4v-0.7h-0.4c-0.1,0-0.2,0-0.3,0
	c-0.2,0-0.3,0.1-0.5,0.3C62,23,61.4,23.6,61,24.1v-0.8h0.3v-0.8h-1.1v4.9h-0.4v0.7H61v-1.8l1.2,1.2v0.6h1.5L61,25.3L61,25.3z"/>
<path class="st1" d="M8.6,25.3L7.7,25c0.2-0.4,0.8-1.7,0.8-1.7c0,0,0,0,0.1-0.1c0.1,0,0.1,0,0.1,0.1l0,0c0,0,0.8,1.7,0.8,1.7
	L8.6,25.3L8.6,25.3z M9.6,28.1h1.7l-0.9-2c0,0-0.1-0.3-0.6-0.5c0.1,0,0.3-0.1,0.3-0.1c0.1-0.1,0.1-0.2,0.1-0.3c0-0.1,0-0.2-0.1-0.3
	L9.4,23c-0.2-0.3-0.5-0.5-0.8-0.5c-0.4,0-0.6,0.2-0.8,0.5l-0.8,1.8c0,0.1-0.1,0.2-0.1,0.4c0,0.2,0,0.3,0.2,0.4
	c0.1,0,0.2,0.1,0.3,0.1c-0.3,0.1-0.5,0.5-0.5,0.5l0,0l-0.8,2h1.7v-0.7H7l0.5-1c0,0,0,0,0,0l0,0l1-0.3l1.1,0.4c0,0,0,0,0,0l0.4,1H9.6
	V28.1L9.6,28.1z"/>
<path class="st1" d="M52.9,25.3L52,25c0.2-0.4,0.8-1.7,0.8-1.7c0,0,0,0,0.1-0.1c0.1,0,0.1,0,0.1,0.1l0,0c0,0,0.8,1.7,0.8,1.7
	L52.9,25.3L52.9,25.3z M53.9,28.1h1.7l-0.8-1.9c0,0-0.1-0.3-0.6-0.5c0.1,0,0.3-0.1,0.3-0.2c0.1-0.1,0.1-0.2,0.1-0.3
	c0-0.1,0-0.2-0.1-0.3L53.7,23c-0.2-0.3-0.5-0.5-0.8-0.5c-0.4,0-0.6,0.2-0.8,0.5l-0.8,1.8c0,0.1-0.1,0.2-0.1,0.4c0,0.2,0,0.3,0.2,0.3
	c0.1,0,0.2,0.1,0.3,0.1c-0.3,0.1-0.5,0.5-0.5,0.5l0,0l-0.8,1.9h1.7v-0.7h-0.5l0.5-1c0,0,0,0,0,0l0,0l1-0.3l1.1,0.4c0,0,0,0,0,0
	s0.3,0.6,0.4,1h-0.5V28.1L53.9,28.1z"/>
<path class="st1" d="M70.8,25.3L69.9,25c0.2-0.4,0.8-1.7,0.8-1.7c0,0,0,0,0.1-0.1c0.1,0,0.1,0,0.1,0.1l0,0c0,0,0.8,1.7,0.8,1.7
	L70.8,25.3L70.8,25.3z M71.8,28.1h1.7l-0.8-1.9c0,0-0.1-0.3-0.6-0.5c0.1,0,0.3-0.1,0.3-0.2c0.1-0.1,0.1-0.2,0.1-0.3
	c0-0.1,0-0.2-0.1-0.3L71.6,23c-0.2-0.3-0.5-0.5-0.8-0.5c-0.4,0-0.6,0.2-0.8,0.5l-0.8,1.8c0,0.1-0.1,0.2-0.1,0.4c0,0.2,0,0.3,0.2,0.3
	c0.1,0,0.2,0.1,0.3,0.1c-0.3,0.1-0.5,0.5-0.5,0.5l0,0l-0.8,1.9h1.7v-0.7h-0.5l0.5-1c0,0,0,0,0,0l0,0l1-0.3l1.1,0.4c0,0,0,0,0,0
	s0.3,0.6,0.4,1h-0.5V28.1L71.8,28.1z"/>
<path class="st1" d="M40,24.8v0.9l-0.6-0.4L40,24.8L40,24.8z M41.6,23.6v-1.1h-2.8c-0.5,0-0.9,0.4-0.9,0.9v1.2
	c0,0.3,0.2,0.5,0.3,0.7c-0.1,0.1-0.3,0.3-0.3,0.7v1.2c0,0.5,0.4,0.9,0.9,0.9h2.8V27h-0.8v0.4h-2c-0.1,0-0.2-0.1-0.2-0.2l0-1.1
	c0,0,0-0.2,0.2-0.4l1.2,0.8c0,0,0.1,0.1,0.3,0.1c0.1,0,0.1,0,0.2,0c0.1,0,0.3-0.2,0.3-0.4v-1.8c0-0.2-0.1-0.3-0.2-0.4
	c-0.1,0-0.1-0.1-0.2-0.1c-0.2,0-0.3,0.1-0.3,0.1l-1.2,0.8c-0.1-0.1-0.1-0.3-0.1-0.4l0-1.2c0-0.1,0.1-0.2,0.2-0.2h2v0.4H41.6
	L41.6,23.6z"/>
<path class="st1" d="M95.2,24.8v0.9l-0.6-0.4L95.2,24.8L95.2,24.8z M96.8,23.6v-1.1H94c-0.5,0-0.9,0.4-0.9,0.9v1.2
	c0,0.3,0.2,0.5,0.3,0.7c-0.1,0.1-0.3,0.3-0.3,0.7v1.2c0,0.5,0.4,0.9,0.9,0.9h2.8V27H96v0.4h-2c-0.1,0-0.2-0.1-0.2-0.2l0-1.1
	c0,0,0-0.2,0.2-0.4l1.2,0.8c0,0,0.1,0.1,0.3,0.1c0.1,0,0.1,0,0.2,0c0.1,0,0.3-0.2,0.3-0.4v-1.8c0-0.2-0.1-0.3-0.2-0.4
	c-0.1,0-0.1-0.1-0.2-0.1c-0.2,0-0.3,0.1-0.3,0.1L94,24.9c-0.1-0.1-0.1-0.3-0.1-0.4l0-1.2c0-0.1,0.1-0.2,0.2-0.2h2v0.4H96.8
	L96.8,23.6z"/>
<path class="st1" d="M112.4,24.8v0.9l-0.6-0.4L112.4,24.8L112.4,24.8z M114,23.6v-1.1h-2.8c-0.5,0-0.9,0.4-0.9,0.9v1.2
	c0,0.3,0.2,0.5,0.3,0.7c-0.1,0.1-0.3,0.3-0.3,0.7v1.2c0,0.5,0.4,0.9,0.9,0.9h2.8V27h-0.8v0.4h-2c-0.1,0-0.2-0.1-0.2-0.2l0-1.1
	c0,0,0-0.2,0.2-0.4l1.2,0.8c0.1,0.1,0.3,0.2,0.5,0c0.2-0.1,0.2-0.4,0.2-0.4v-1.8c0,0,0-0.3-0.2-0.4c-0.2-0.1-0.5,0-0.5,0l-1.2,0.8
	c-0.1-0.1-0.1-0.3-0.1-0.4v-1.2c0-0.1,0.1-0.2,0.2-0.2h2v0.4H114L114,23.6z"/>
<polygon class="st1" points="80,23.6 80.8,23.6 80.8,23.1 81.9,23.1 81.9,28.1 83.1,28.1 83.1,27.4 82.7,27.4 82.7,23.1 83.8,23.1 
	83.8,23.6 84.6,23.6 84.6,22.5 80,22.5 80,23.6 "/>
<polygon class="st1" points="104.2,23.6 105,23.6 105,23.1 106.1,23.1 106.1,28.1 107.3,28.1 107.3,27.4 106.9,27.4 106.9,23.1 
	108,23.1 108,23.6 108.8,23.6 108.8,22.5 104.2,22.5 104.2,23.6 "/>
<path class="st1" d="M90.7,27.3c-0.2,0-0.7-0.1-1-0.3c-0.2-0.1-0.5-0.3-0.6-0.6c-0.2-0.3-0.3-0.6-0.3-1.2c0-0.5,0.1-0.9,0.3-1.2
	c0.2-0.4,0.6-0.6,1-0.7c0.2-0.1,0.5-0.1,0.7-0.1v0.4h0.8v-1.2c0,0-0.4,0-0.5,0c-0.3,0-1.1,0-1.8,0.4c-0.3,0.2-0.7,0.5-0.9,0.9
	c-0.2,0.4-0.4,0.9-0.4,1.6l0,0c0,0.6,0.2,1.2,0.4,1.6c0.4,0.6,0.9,0.9,1.4,1.1h0c0.5,0.2,1,0.2,1.2,0.2l0.4,0v-1.2h-0.8V27.3
	L90.7,27.3z"/>
<path class="st1" d="M77.6,28.1H79l-2.7-2.9h0.9c0.5,0,1-0.1,1.3-0.3c0.3-0.3,0.4-0.6,0.4-1c0-0.3-0.1-0.6-0.4-0.9
	c-0.3-0.3-0.7-0.4-1.2-0.4h-1.3c-0.1,0-0.3,0-0.5,0.1c-0.1,0.1-0.2,0.2-0.3,0.3C75,23.1,75,23.2,75,23.4v0.8c0,0,0,0.2,0,0.3
	c0,0.1,0.1,0.3,0.2,0.4c-0.1,0.1-0.1,0.1-0.1,0.2C75,25.4,75,25.6,75,25.8v2.3h1.2v-0.8h-0.4v-1.5l1.8,1.9V28.1L77.6,28.1z
	 M75.8,23.2c0,0,0.1,0,0.1,0l1.3,0c0.4,0,0.5,0.1,0.6,0.2c0.1,0.1,0.2,0.2,0.2,0.4c0,0.2-0.1,0.4-0.2,0.5c-0.1,0.1-0.3,0.2-0.6,0.2
	c-0.2,0-1,0-1,0c-0.1,0-0.3,0.1-0.3,0.1s-0.2-0.1-0.2-0.3v-0.9C75.8,23.3,75.7,23.2,75.8,23.2L75.8,23.2z"/>
<path class="st1" d="M118.6,28.1h1.4l-2.7-2.9h0.9c0.5,0,1-0.1,1.3-0.3c0.3-0.3,0.4-0.6,0.4-1c0-0.3-0.1-0.6-0.4-0.9
	c-0.3-0.3-0.7-0.4-1.2-0.4h-1.3c-0.1,0-0.3,0-0.5,0.1c-0.1,0.1-0.2,0.2-0.3,0.3c-0.1,0.1-0.1,0.3-0.1,0.5v0.8c0,0,0,0.2,0,0.3
	c0,0.1,0.1,0.3,0.2,0.4c0,0.1-0.1,0.1-0.1,0.2c-0.1,0.2-0.1,0.4-0.1,0.6v2.3h1.2v-0.8h-0.4v-1.5l1.8,1.9V28.1L118.6,28.1z
	 M116.8,23.2c0,0,0.1,0,0.1,0l1.3,0c0.4,0,0.5,0.1,0.6,0.2c0.1,0.1,0.2,0.2,0.2,0.4c0,0.2-0.1,0.4-0.2,0.5c-0.1,0.1-0.3,0.2-0.6,0.2
	c-0.2,0-1,0-1,0c-0.2,0-0.3,0.1-0.3,0.1s-0.2-0.1-0.2-0.3v-0.9C116.7,23.3,116.7,23.2,116.8,23.2L116.8,23.2z"/>
<g>
	<path class="st2" d="M50.3,12.4c0.9,0,1.6,0.7,1.6,1.6c0,0.9-0.7,1.6-1.6,1.6c-0.9,0-1.6-0.7-1.6-1.6
		C48.7,13.1,49.4,12.4,50.3,12.4L50.3,12.4z"/>
	<path class="st2" d="M50.2,11.5C50.2,11.5,50.3,11.5,50.2,11.5C50.3,11.5,50.2,11.5,50.2,11.5L50.2,11.5z"/>
	<path class="st2" d="M50.1,11.5L50.1,11.5c0,0,0.1,0,0.1,0C50.1,11.5,50.1,11.5,50.1,11.5L50.1,11.5z"/>
	<path class="st2" d="M50.1,1.8c0.6,0,1.1,0.1,1.6,0.3c0.5,0.2,0.9,0.4,1.3,0.8C53,2.9,53.1,3,53.1,3c0.4,0.4,1,1.4,0.9,3.1
		c0,0-0.6,0.1-0.9,0c0,0,0,0,0,0c-0.3,0-0.6-0.1-0.7-0.2c-0.4-0.2-0.7-0.5-0.8-0.9c0,0,0,0,0-0.1c-0.2-0.7-0.7-1.3-1.6-1.3
		c-0.9,0-1.5,0.5-1.5,1.5c0,0.3,0.2,0.7,0.3,0.9c0.2,0.3,0.4,0.5,0.7,0.7c0.5,0.4,0.9,0.9,1.2,1.4c0.1,0.2,0.2,0.3,0.3,0.5
		C51,9,51.1,9.3,51.1,9.5c0,0.1,0,0.1,0,0.2c0,0.1,0,0.2,0,0.3c0,0.4,0,0.7,0,1.4c0,0,0,0,0,0c0,0,0,0,0,0.1c0,0,0,0.1,0,0.1
		c0,0,0,0,0,0c-0.5,0-0.7,0-0.9,0c0,0,0,0,0,0c0,0-0.1,0-0.1,0c-0.1,0-0.2-0.1-0.2-0.1c-0.2-0.1-0.4-0.3-0.5-0.5
		c-0.3-0.5-0.1-0.9-0.7-1.7c-0.3-0.5-0.9-0.8-1.4-1.2c-0.3-0.3-0.7-0.5-1-0.9c-0.3-0.5-0.5-1.1-0.5-2C45.8,3.7,46.9,1.8,50.1,1.8
		L50.1,1.8z"/>
	<polygon class="st2" points="0,-0.1 0,1.4 0,17.1 4.1,17.1 4.1,-0.1 0,-0.1 	"/>
	<polygon class="st2" points="115.9,-0.1 115.9,1.4 115.9,17.1 120,17.1 120,-0.1 115.9,-0.1 	"/>
	<polygon class="st2" points="69.3,9.4 60.6,9.4 60.6,11.2 69.3,11.2 69.3,9.4 	"/>
	<polygon class="st2" points="69.3,5.8 60.6,5.8 60.6,7.6 69.3,7.6 69.3,5.8 	"/>
	<polygon class="st2" points="41.9,7.5 34.5,7.5 34.5,9.5 41.9,9.5 41.9,7.5 	"/>
	<path class="st2" d="M26.3,12.4c-0.9,0-1.6,0.7-1.6,1.6c0,0.9,0.7,1.6,1.6,1.6c0.9,0,1.6-0.7,1.6-1.6
		C27.8,13.1,27.1,12.4,26.3,12.4L26.3,12.4z"/>
	<path class="st2" d="M26.3,11.5C26.3,11.5,26.3,11.5,26.3,11.5C26.3,11.5,26.3,11.5,26.3,11.5L26.3,11.5z"/>
	<path class="st2" d="M26.5,11.5L26.5,11.5c0,0-0.1,0-0.1,0C26.4,11.5,26.5,11.5,26.5,11.5L26.5,11.5z"/>
	<path class="st2" d="M26.5,1.8c-0.6,0-1.1,0.1-1.6,0.3c-0.5,0.2-0.9,0.4-1.3,0.8C23.5,2.9,23.5,3,23.4,3c-0.4,0.4-1,1.4-0.9,3.1
		c0,0,0.6,0.1,0.9,0c0,0,0,0,0,0c0.3,0,0.6-0.1,0.7-0.2c0.4-0.2,0.7-0.5,0.8-0.9c0,0,0,0,0-0.1c0.2-0.7,0.7-1.3,1.6-1.3
		c0.9,0,1.5,0.5,1.5,1.5c0,0.3-0.2,0.7-0.3,0.9c-0.2,0.3-0.4,0.5-0.7,0.7c-0.5,0.4-0.9,0.9-1.2,1.4c-0.1,0.2-0.2,0.3-0.3,0.5
		c-0.1,0.2-0.2,0.5-0.2,0.7c0,0.1,0,0.1,0,0.2c0,0.1,0,0.2,0,0.3c0,0.4,0,0.7,0,1.4c0,0,0,0,0,0c0,0,0,0,0,0.1c0,0,0,0.1,0,0.1
		c0,0,0,0,0,0c0.5,0,0.7,0,0.9,0c0,0,0,0,0,0c0,0,0.1,0,0.1,0c0.1,0,0.2-0.1,0.2-0.1c0.2-0.1,0.4-0.3,0.5-0.5
		c0.3-0.5,0.1-0.9,0.7-1.7c0.3-0.5,0.9-0.8,1.4-1.2c0.3-0.3,0.7-0.5,1-0.9c0.3-0.5,0.5-1.1,0.5-2C30.7,3.7,29.7,1.8,26.5,1.8
		L26.5,1.8z"/>
	<path class="st2" d="M96.7,4.9c0,0-0.3-0.3-0.8-0.6c-0.2-0.1-0.6-0.3-1-0.4c-0.6-0.2-1-0.3-1.1-0.3c-0.9-0.2-2-0.2-3,0.2
		c-2.1,0.8-3.3,2.4-3.5,2.8c-0.4-0.5-1.1-1.4-1.8-1.9c-1.1-0.7-2.4-1.2-3.8-1.2c-1.6,0-3,0.6-4.1,1.6c-1.1,1-1.7,2.3-1.7,3.7
		c0,1.4,0.6,2.8,1.7,3.8c0,0,0.3,0.3,0.8,0.6c0.6,0.3,2.9,1.4,5.2,0.5c2.1-0.8,3.3-2.4,3.5-2.8c0.4,0.5,1.1,1.4,1.8,1.9
		c1.1,0.7,2.4,1.2,3.8,1.2c1.6,0,3-0.6,4.1-1.6c1.1-1,1.7-2.3,1.7-3.7C98.4,7.2,97.8,5.9,96.7,4.9L96.7,4.9z M83.7,11.5
		c-0.9,0.5-1.8,0.7-2.6,0.6c-1.1-0.1-1.8-0.5-2.3-1.1c-0.5-0.7-0.8-1.4-0.7-2.4c0.1-0.9,0.5-1.6,1.2-2.1c0.7-0.6,1.5-0.8,2.5-0.7
		c0.9,0.1,1.9,0.6,2.5,1.3c1.2,1.2,1.7,2.3,1.7,2.3S85.2,10.6,83.7,11.5L83.7,11.5z M96.1,8.8c-0.1,0.9-0.5,1.6-1.2,2.1
		c-0.7,0.6-1.5,0.8-2.5,0.7c-0.9-0.1-1.9-0.6-2.5-1.3c-1.2-1.2-1.7-2.3-1.7-2.3s0.8-1.3,2.3-2.2c0.9-0.5,1.8-0.7,2.6-0.6
		c1.1,0.1,1.8,0.5,2.3,1.1C95.9,7.1,96.2,7.9,96.1,8.8L96.1,8.8z"/>
</g>
</svg>
