<?xml version="1.0" encoding="utf-8"?>
<!-- Generator: Adobe Illustrator 22.0.1, SVG Export Plug-In . SVG Version: 6.00 Build 0)  -->
<svg version="1.1" id="Layer_1" xmlns="http://www.w3.org/2000/svg" xmlns:xlink="http://www.w3.org/1999/xlink" x="0px" y="0px"
	 viewBox="0 0 67 24" style="enable-background:new 0 0 67 24;" xml:space="preserve">
<style type="text/css">
	.st0{fill:#FF0000;}
	.st1{fill:#FFFFFF;}
	.st2{fill:#E30013;}
</style>
<g>
	<polygon class="st0" points="-0.1,0 -0.1,2 -0.1,24 5.6,24 5.6,0 -0.1,0 	"/>
	<polygon class="st0" points="61.3,0 61.3,2 61.3,24 67.1,24 67.1,0 61.3,0 	"/>
	<path class="st0" d="M47,6.9c0,0-0.4-0.4-1.2-0.8c-0.3-0.1-0.8-0.4-1.4-0.6c-0.8-0.3-1.4-0.4-1.6-0.4c-1.3-0.2-2.8-0.3-4.3,0.3
		c-3,1.1-4.6,3.4-4.9,3.9c-0.5-0.7-1.5-2-2.6-2.7c-1.6-1-3.4-1.7-5.3-1.7c-2.2,0-4.2,0.8-5.7,2.3c-1.5,1.4-2.4,3.2-2.3,5.1
		c0,2,0.8,3.9,2.3,5.3c0,0,0.4,0.4,1.2,0.8c0.9,0.5,4.1,1.9,7.3,0.8c3-1.1,4.6-3.4,4.9-3.9c0.5,0.7,1.5,2,2.6,2.7
		c1.6,1,3.4,1.7,5.3,1.7c2.2,0,4.2-0.8,5.7-2.3c1.5-1.4,2.3-3.2,2.3-5.1C49.4,10.2,48.5,8.3,47,6.9L47,6.9z M28.7,16.1
		c-1.3,0.8-2.5,0.9-3.7,0.8c-1.5-0.2-2.5-0.7-3.2-1.6c-0.7-0.9-1.1-2-1-3.3c0.2-1.3,0.7-2.2,1.7-3c1-0.8,2.1-1.1,3.5-1
		c1.3,0.1,2.6,0.9,3.5,1.8c1.6,1.7,2.3,3.2,2.3,3.2S30.8,14.9,28.7,16.1L28.7,16.1z M46.1,12.5c-0.2,1.3-0.7,2.2-1.6,3
		c-1,0.8-2.1,1.1-3.5,1c-1.3-0.1-2.6-0.9-3.5-1.8c-1.6-1.7-2.3-3.2-2.3-3.2s1.1-1.9,3.2-3.1c1.3-0.8,2.5-0.9,3.7-0.8
		c1.5,0.2,2.5,0.7,3.2,1.6C45.9,10.1,46.2,11.2,46.1,12.5L46.1,12.5z"/>
</g>
<g>
	<path class="st1" d="M52.1-18l-7.9-7.6c1.4-2,2.2-4.5,2.2-7.2c-0.1-6.8-5.7-12.1-12.5-12s-12.1,5.7-12,12.5
		c0.1,6.8,5.7,12.1,12.5,12c2.7-0.1,5.1-1,7.1-2.4l7.9,7.6L52.1-18z"/>
</g>
<path class="st1" d="M-151.1-10.3v-2.5h0.7v0.7h0.6v-0.7h0.7v2.5H-151.1z M-147.6-8.2v-1.1h-3v-0.6h3.8v1.7H-147.6z M-149.8-11.5
	h-0.6v0.6h0.6V-11.5z M-147.5-10.2v-1.1h-0.4v1.1h-0.7V-13h0.7v1h0.4v-1.1h0.7v2.9H-147.5z"/>
<path class="st1" d="M-141-10.7l-1.2,0v-2.2h0.7v1.5l0.4,0c0.7,0,1.4-0.1,1.8-0.2v0.6C-139.5-10.9-140.2-10.7-141-10.7z M-141.6-8.2
	v-2h3.5v2H-141.6z M-138.8-9.6h-2v0.7h2V-9.6z M-138.1-11.4v1h-0.7v-2.6h0.7v1h0.7v0.6H-138.1z"/>
<path class="st1" d="M-130.4-10.1v0.8h-0.8v-0.8h-2.2v-0.6h4.9v0.6H-130.4z M-129.2-10.9c-0.7-0.1-1.3-0.3-1.7-0.8
	c-0.3,0.4-1.1,0.7-1.7,0.8l-0.4-0.5c0.5,0,1.5-0.3,1.7-0.8h-1.4v-0.6h3.8v0.6h-1.4c0.3,0.6,1.4,0.8,1.7,0.8L-129.2-10.9z
	 M-132.8-8.3v-1.4h0.8v0.7h3.1v0.6H-132.8z"/>
<path class="st1" d="M-122.8-9c-0.8,0-1.4-0.7-1.4-1.9c0-1.1,0.6-1.9,1.4-1.9c0.9,0,1.4,0.7,1.4,1.9C-121.4-9.8-121.9-9-122.8-9z
	 M-122.8-12.1c-0.4,0-0.7,0.6-0.7,1.2c0,0.6,0.3,1.2,0.7,1.2c0.4,0,0.7-0.6,0.7-1.2C-122.1-11.5-122.4-12.1-122.8-12.1z M-120-10.5
	v2.3h-0.7v-4.9h0.7v1.9h0.7v0.7H-120z"/>
<path class="st1" d="M-115.3-8.7v-0.6h4.9v0.6H-115.3z M-114.7-9.9v-2.8h3.7v0.6h-2.9v0.4h2.9v0.6h-2.9v0.4h3v0.6H-114.7z"/>
<path class="st1" d="M-104.1-10.1c-0.3-0.2-0.6-0.5-0.9-0.9c-0.2,0.4-0.5,0.7-0.9,0.9l-0.5-0.5c0.5-0.3,1-0.9,1-1.8v-0.7h0.8v0.7
	c0,0.9,0.5,1.3,0.9,1.6L-104.1-10.1z M-105.3-8.3v-1.5h0.8v0.9h3v0.6H-105.3z M-103.4-9.6v-1.8h-0.7V-12h0.7V-13h0.7v3.4H-103.4z
	 M-102.4-9.5v-3.6h0.7v3.6H-102.4z"/>
<path class="st1" d="M-95.1-9.2c-0.6,0-1.7,0-1.8,0v-3.5h2.3v0.6h-1.6v0.7h1.5v0.6h-1.5v0.8c0,0,0.5,0,1,0c0.4,0,0.7-0.1,1-0.1v0.6
	C-94.5-9.2-94.8-9.2-95.1-9.2z M-93.6-8.2v-2.5h-0.7v-0.7h0.7v-1.8h0.7v4.9H-93.6z"/>
<path class="st1" d="M-164.3-23.6c0,0-0.1-0.2-0.3-0.3C-164.7-24-165-24-165-24c0,0-0.2,0-0.4,0.1c-0.2,0.1-0.3,0.2-0.4,0.5l-1,2.8
	c0,0,0,0,0,0c0,0,0,0,0,0l-1-2.8c-0.1-0.2-0.2-0.4-0.4-0.5c-0.1-0.1-0.3-0.1-0.4-0.1c-0.1,0-0.3,0-0.4,0.1c-0.2,0.1-0.3,0.3-0.3,0.4
	c0,0.1-0.1,0.2-0.1,0.3v4.8h1.4v-0.7h-0.6v-4.1c0,0,0,0,0,0c0,0,0,0,0,0l1,2.8c0.1,0.2,0.2,0.4,0.4,0.4c0.1,0.1,0.3,0.1,0.4,0.1
	c0,0,0.2,0,0.3-0.1c0.2-0.1,0.3-0.2,0.4-0.4l1-2.8c0,0,0,0,0,0c0,0,0,0,0,0v4.1h-0.6v0.7h1.4l0-4.8
	C-164.2-23.3-164.2-23.5-164.3-23.6"/>
<path class="st1" d="M-178.9-23.4h0.5v4.1c0,0,0,0.1-0.1,0.1c-0.1,0-0.1,0-0.1,0l-1.8-4.4v0l0,0c-0.1-0.2-0.3-0.4-0.4-0.4
	c-0.2-0.1-0.4-0.1-0.4-0.1c-0.2,0-0.3,0-0.5,0.1c-0.2,0.1-0.3,0.3-0.3,0.4c0,0.1,0,0.2,0,0.2v4.9h1.3v-0.7h-0.5c0,0,0-4.1,0-4.1
	c0,0,0-0.1,0.1-0.1c0.1,0,0.1,0,0.1,0l1.8,4.4l0,0c0.1,0.2,0.3,0.4,0.4,0.4l0,0c0.2,0.1,0.4,0.1,0.4,0.1c0.2,0,0.3,0,0.4-0.1
	c0.2-0.1,0.3-0.3,0.4-0.4c0-0.1,0.1-0.2,0.1-0.3V-24h-1.3V-23.4L-178.9-23.4z"/>
<path class="st1" d="M-80.4-23.4h0.5v4.1c0,0,0,0.1-0.1,0.1c-0.1,0-0.1,0-0.1,0l-1.8-4.4v0l0,0c-0.1-0.2-0.3-0.4-0.4-0.4
	c-0.2-0.1-0.4-0.1-0.4-0.1c-0.2,0-0.3,0-0.5,0.1c-0.2,0.1-0.3,0.3-0.3,0.4c0,0.1,0,0.2,0,0.2v4.9h1.3v-0.7h-0.5c0,0,0-4.1,0-4.1
	c0,0,0-0.1,0.1-0.1c0.1,0,0.1,0,0.1,0l1.8,4.4l0,0c0.1,0.2,0.3,0.4,0.4,0.4l0,0c0.2,0.1,0.4,0.1,0.4,0.1c0.2,0,0.3,0,0.4-0.1
	c0.2-0.1,0.3-0.3,0.4-0.4c0-0.1,0.1-0.2,0.1-0.3V-24h-1.3V-23.4L-80.4-23.4z"/>
<path class="st1" d="M-147-23.4h0.5v4.1c0,0,0,0.1-0.1,0.1c-0.1,0-0.1,0-0.1,0l-1.8-4.4v0l0,0c-0.1-0.2-0.3-0.4-0.4-0.4
	c-0.2-0.1-0.4-0.1-0.4-0.1c-0.2,0-0.3,0-0.5,0.1c-0.2,0.1-0.3,0.3-0.3,0.4c0,0.1-0.1,0.2-0.1,0.2v4.9h1.3v-0.7h-0.5c0,0,0-4.1,0-4.1
	c0,0,0-0.1,0.1-0.1c0.1,0,0.1,0,0.1,0l1.8,4.4l0,0c0.1,0.2,0.3,0.4,0.4,0.4l0,0c0.2,0.1,0.4,0.1,0.4,0.1c0.2,0,0.3,0,0.4-0.1
	c0.2-0.1,0.3-0.3,0.4-0.4c0-0.1,0.1-0.2,0.1-0.3V-24h-1.3V-23.4L-147-23.4z"/>
<path class="st1" d="M-157.1-24h-1.3v0.7h0.5v3.5v0v0c0,0,0,0,0,0c0,0.1,0,0.3-0.1,0.5c-0.1,0.1-0.1,0.1-0.2,0.2
	c-0.1,0.1-0.2,0.1-0.5,0.1h0c-0.2,0-0.4,0-0.5-0.1c-0.1-0.1-0.2-0.2-0.3-0.4c0-0.1-0.1-0.3-0.1-0.3V-20l-0.8,0c0,0,0,0.1,0,0.1v0
	c0,0.1,0,0.5,0.2,0.8c0.1,0.2,0.3,0.4,0.5,0.5c0.2,0.1,0.5,0.2,0.9,0.2h0c0.3,0,0.6-0.1,0.8-0.2c0.3-0.2,0.5-0.5,0.6-0.8
	c0.1-0.3,0.1-0.5,0.1-0.6c0,0,0-0.1,0-0.1V-24L-157.1-24z"/>
<path class="st1" d="M-151.6-24h-1.2v0.7h0.4v3.1c0,0.3-0.1,0.6-0.2,0.8c-0.2,0.2-0.5,0.4-1,0.4c-0.5,0-0.8-0.2-1-0.4
	c-0.2-0.2-0.2-0.5-0.2-0.8v0v-3.1h0.5V-24h-1.3v3.8c0,0.4,0.1,0.8,0.4,1.3c0.3,0.4,1,0.7,1.6,0.7c0.6,0,1.3-0.3,1.6-0.7
	c0.3-0.4,0.4-0.9,0.4-1.3V-24L-151.6-24z"/>
<path class="st1" d="M-133.1-22.2c-0.1,0.1-0.3,0.2-0.6,0.2c-0.2,0-1,0-1,0c-0.1,0-0.3,0.1-0.3,0.1s-0.2-0.1-0.2-0.3v-1
	c0,0,0-0.1,0-0.1c0,0,0.1,0,0.1,0l1.3,0c0.4,0,0.5,0.1,0.6,0.2c0.1,0.1,0.2,0.4,0.2,0.5C-132.9-22.4-132.9-22.3-133.1-22.2
	 M-132.5-23.6c-0.3-0.3-0.7-0.4-1.2-0.4h-1.3c-0.1,0-0.3,0-0.5,0.1c-0.1,0.1-0.2,0.2-0.3,0.3c-0.1,0.1-0.1,0.3-0.1,0.5l0,0.9
	c0,0,0,0.2,0,0.3c0,0.1,0.1,0.3,0.2,0.4c-0.1,0.1-0.1,0.1-0.1,0.2c-0.1,0.2-0.1,0.5-0.1,0.6v2.2h1.2v-0.7h-0.4c0-0.5,0-1.6,0-1.6
	s0-0.2,0.1-0.3c0.1-0.1,0.4-0.1,0.4-0.1s0.8,0,1,0h0c0,0,0.7,0,1.2-0.5c0.3-0.3,0.4-0.7,0.4-1C-132.1-23-132.2-23.3-132.5-23.6"/>
<polygon class="st1" points="-124.3,-24 -125.5,-24 -125.5,-23.4 -125,-23.4 -125,-18.4 -123.9,-18.4 -123.9,-19.1 -124.3,-19.1 
	-124.3,-24 "/>
<path class="st1" d="M-121-21.2c-0.1-0.1,0-0.2,0-0.2l0,0c0.1-0.1,1.8-1.8,1.8-1.8s0.1-0.1,0.3-0.1h0.4V-24h-0.4c-0.1,0-0.2,0-0.3,0
	c-0.2,0-0.3,0.1-0.5,0.3c-0.2,0.2-0.8,0.8-1.3,1.3v-0.8h0.3V-24h-1.1v4.9h-0.4v0.7h1.2v-1.8l1.2,1.2v0.6h1.5L-121-21.2L-121-21.2z"
	/>
<path class="st1" d="M-173.4-21.2l-0.9-0.3c0.2-0.4,0.8-1.7,0.8-1.7c0,0,0,0,0.1-0.1c0.1,0,0.1,0,0.1,0.1l0,0c0,0,0.8,1.7,0.8,1.7
	L-173.4-21.2L-173.4-21.2z M-172.4-18.4h1.7l-0.9-2c0,0-0.1-0.3-0.6-0.5c0.1,0,0.3-0.1,0.3-0.1c0.1-0.1,0.1-0.2,0.1-0.3
	c0-0.1,0-0.2-0.1-0.3l-0.8-1.8c-0.2-0.3-0.5-0.5-0.8-0.5c-0.4,0-0.6,0.2-0.8,0.5l-0.8,1.8c0,0.1-0.1,0.2-0.1,0.4
	c0,0.2,0,0.3,0.2,0.4c0.1,0,0.2,0.1,0.3,0.1c-0.3,0.1-0.5,0.5-0.5,0.5l0,0l-0.8,2h1.7v-0.7h-0.5l0.5-1c0,0,0,0,0,0l0,0l1-0.3
	l1.1,0.4c0,0,0,0,0,0l0.4,1h-0.5V-18.4L-172.4-18.4z"/>
<path class="st1" d="M-129.1-21.2l-0.9-0.3c0.2-0.4,0.8-1.7,0.8-1.7c0,0,0,0,0.1-0.1c0.1,0,0.1,0,0.1,0.1l0,0c0,0,0.8,1.7,0.8,1.7
	L-129.1-21.2L-129.1-21.2z M-128.1-18.4h1.7l-0.8-1.9c0,0-0.1-0.3-0.6-0.5c0.1,0,0.3-0.1,0.3-0.2c0.1-0.1,0.1-0.2,0.1-0.3
	c0-0.1,0-0.2-0.1-0.3l-0.8-1.8c-0.2-0.3-0.5-0.5-0.8-0.5c-0.4,0-0.6,0.2-0.8,0.5l-0.8,1.8c0,0.1-0.1,0.2-0.1,0.4
	c0,0.2,0,0.3,0.2,0.3c0.1,0,0.2,0.1,0.3,0.1c-0.3,0.1-0.5,0.5-0.5,0.5l0,0l-0.8,1.9h1.7v-0.7h-0.5l0.5-1c0,0,0,0,0,0l0,0l1-0.3
	l1.1,0.4c0,0,0,0,0,0s0.3,0.6,0.4,1h-0.5V-18.4L-128.1-18.4z"/>
<path class="st1" d="M-111.2-21.2l-0.9-0.3c0.2-0.4,0.8-1.7,0.8-1.7c0,0,0,0,0.1-0.1c0.1,0,0.1,0,0.1,0.1l0,0c0,0,0.8,1.7,0.8,1.7
	L-111.2-21.2L-111.2-21.2z M-110.2-18.4h1.7l-0.8-1.9c0,0-0.1-0.3-0.6-0.5c0.1,0,0.3-0.1,0.3-0.2c0.1-0.1,0.1-0.2,0.1-0.3
	c0-0.1,0-0.2-0.1-0.3l-0.8-1.8c-0.2-0.3-0.5-0.5-0.8-0.5c-0.4,0-0.6,0.2-0.8,0.5l-0.8,1.8c0,0.1-0.1,0.2-0.1,0.4
	c0,0.2,0,0.3,0.2,0.3c0.1,0,0.2,0.1,0.3,0.1c-0.3,0.1-0.5,0.5-0.5,0.5l0,0l-0.8,1.9h1.7v-0.7h-0.5l0.5-1c0,0,0,0,0,0l0,0l1-0.3
	l1.1,0.4c0,0,0,0,0,0s0.3,0.6,0.4,1h-0.5V-18.4L-110.2-18.4z"/>
<path class="st1" d="M-142-21.7v0.9l-0.6-0.4L-142-21.7L-142-21.7z M-140.4-22.9V-24h-2.8c-0.5,0-0.9,0.4-0.9,0.9v1.2
	c0,0.3,0.2,0.5,0.3,0.7c-0.1,0.1-0.3,0.3-0.3,0.7v1.2c0,0.5,0.4,0.9,0.9,0.9h2.8v-1.1h-0.8v0.4h-2c-0.1,0-0.2-0.1-0.2-0.2l0-1.1
	c0,0,0-0.2,0.2-0.4l1.2,0.8c0,0,0.1,0.1,0.3,0.1c0.1,0,0.1,0,0.2,0c0.1,0,0.3-0.2,0.3-0.4v-1.8c0-0.2-0.1-0.3-0.2-0.4
	c-0.1,0-0.1-0.1-0.2-0.1c-0.2,0-0.3,0.1-0.3,0.1l-1.2,0.8c-0.1-0.1-0.1-0.3-0.1-0.4l0-1.2c0-0.1,0.1-0.2,0.2-0.2h2v0.4H-140.4
	L-140.4-22.9z"/>
<path class="st1" d="M-86.8-21.7v0.9l-0.6-0.4L-86.8-21.7L-86.8-21.7z M-85.2-22.9V-24H-88c-0.5,0-0.9,0.4-0.9,0.9v1.2
	c0,0.3,0.2,0.5,0.3,0.7c-0.1,0.1-0.3,0.3-0.3,0.7v1.2c0,0.5,0.4,0.9,0.9,0.9h2.8v-1.1H-86v0.4h-2c-0.1,0-0.2-0.1-0.2-0.2l0-1.1
	c0,0,0-0.2,0.2-0.4l1.2,0.8c0,0,0.1,0.1,0.3,0.1c0.1,0,0.1,0,0.2,0c0.1,0,0.3-0.2,0.3-0.4v-1.8c0-0.2-0.1-0.3-0.2-0.4
	c-0.1,0-0.1-0.1-0.2-0.1c-0.2,0-0.3,0.1-0.3,0.1l-1.2,0.8c-0.1-0.1-0.1-0.3-0.1-0.4l0-1.2c0-0.1,0.1-0.2,0.2-0.2h2v0.4H-85.2
	L-85.2-22.9z"/>
<path class="st1" d="M-69.6-21.7v0.9l-0.6-0.4L-69.6-21.7L-69.6-21.7z M-68-22.9V-24h-2.8c-0.5,0-0.9,0.4-0.9,0.9v1.2
	c0,0.3,0.2,0.5,0.3,0.7c-0.1,0.1-0.3,0.3-0.3,0.7v1.2c0,0.5,0.4,0.9,0.9,0.9h2.8v-1.1h-0.8v0.4h-2c-0.1,0-0.2-0.1-0.2-0.2l0-1.1
	c0,0,0-0.2,0.2-0.4l1.2,0.8c0.1,0.1,0.3,0.2,0.5,0c0.2-0.1,0.2-0.4,0.2-0.4v-1.8c0,0,0-0.3-0.2-0.4c-0.2-0.1-0.5,0-0.5,0l-1.2,0.8
	c-0.1-0.1-0.1-0.3-0.1-0.4v-1.2c0-0.1,0.1-0.2,0.2-0.2h2v0.4H-68L-68-22.9z"/>
<polygon class="st1" points="-102,-22.9 -101.2,-22.9 -101.2,-23.4 -100.1,-23.4 -100.1,-18.4 -98.9,-18.4 -98.9,-19.1 -99.3,-19.1 
	-99.3,-23.4 -98.2,-23.4 -98.2,-22.9 -97.4,-22.9 -97.4,-24 -102,-24 -102,-22.9 "/>
<polygon class="st1" points="-77.8,-22.9 -77,-22.9 -77,-23.4 -75.9,-23.4 -75.9,-18.4 -74.7,-18.4 -74.7,-19.1 -75.1,-19.1 
	-75.1,-23.4 -74,-23.4 -74,-22.9 -73.2,-22.9 -73.2,-24 -77.8,-24 -77.8,-22.9 "/>
<path class="st1" d="M-91.3-19.2c-0.2,0-0.7-0.1-1-0.3c-0.2-0.1-0.5-0.3-0.6-0.6c-0.2-0.3-0.3-0.6-0.3-1.2c0-0.5,0.1-0.9,0.3-1.2
	c0.2-0.4,0.6-0.6,1-0.7c0.2-0.1,0.5-0.1,0.7-0.1v0.4h0.8V-24c0,0-0.4,0-0.5,0c-0.3,0-1.1,0-1.8,0.4c-0.3,0.2-0.7,0.5-0.9,0.9
	c-0.2,0.4-0.4,0.9-0.4,1.6l0,0c0,0.6,0.2,1.2,0.4,1.6c0.4,0.6,0.9,0.9,1.4,1.1h0c0.5,0.2,1,0.2,1.2,0.2l0.4,0v-1.2h-0.8V-19.2
	L-91.3-19.2z"/>
<path class="st1" d="M-104.4-18.4h1.4l-2.7-2.9h0.9c0.5,0,1-0.1,1.3-0.3c0.3-0.3,0.4-0.6,0.4-1c0-0.3-0.1-0.6-0.4-0.9
	c-0.3-0.3-0.7-0.4-1.2-0.4h-1.3c-0.1,0-0.3,0-0.5,0.1c-0.1,0.1-0.2,0.2-0.3,0.3c-0.1,0.1-0.1,0.3-0.1,0.5v0.8c0,0,0,0.2,0,0.3
	c0,0.1,0.1,0.3,0.2,0.4c-0.1,0.1-0.1,0.1-0.1,0.2c-0.1,0.2-0.1,0.4-0.1,0.6v2.3h1.2v-0.8h-0.4v-1.5l1.8,1.9V-18.4L-104.4-18.4z
	 M-106.2-23.3c0,0,0.1,0,0.1,0l1.3,0c0.4,0,0.5,0.1,0.6,0.2c0.1,0.1,0.2,0.2,0.2,0.4c0,0.2-0.1,0.4-0.2,0.5
	c-0.1,0.1-0.3,0.2-0.6,0.2c-0.2,0-1,0-1,0c-0.1,0-0.3,0.1-0.3,0.1s-0.2-0.1-0.2-0.3v-0.9C-106.2-23.2-106.3-23.3-106.2-23.3
	L-106.2-23.3z"/>
<path class="st1" d="M-63.4-18.4h1.4l-2.7-2.9h0.9c0.5,0,1-0.1,1.3-0.3c0.3-0.3,0.4-0.6,0.4-1c0-0.3-0.1-0.6-0.4-0.9
	c-0.3-0.3-0.7-0.4-1.2-0.4h-1.3c-0.1,0-0.3,0-0.5,0.1c-0.1,0.1-0.2,0.2-0.3,0.3c-0.1,0.1-0.1,0.3-0.1,0.5v0.8c0,0,0,0.2,0,0.3
	c0,0.1,0.1,0.3,0.2,0.4c0,0.1-0.1,0.1-0.1,0.2c-0.1,0.2-0.1,0.4-0.1,0.6v2.3h1.2v-0.8h-0.4v-1.5l1.8,1.9V-18.4L-63.4-18.4z
	 M-65.2-23.3c0,0,0.1,0,0.1,0l1.3,0c0.4,0,0.5,0.1,0.6,0.2c0.1,0.1,0.2,0.2,0.2,0.4c0,0.2-0.1,0.4-0.2,0.5c-0.1,0.1-0.3,0.2-0.6,0.2
	c-0.2,0-1,0-1,0c-0.2,0-0.3,0.1-0.3,0.1s-0.2-0.1-0.2-0.3v-0.9C-65.3-23.2-65.3-23.3-65.2-23.3L-65.2-23.3z"/>
<g>
	<path class="st2" d="M-131.7-34.1c0.9,0,1.6,0.7,1.6,1.6c0,0.9-0.7,1.6-1.6,1.6c-0.9,0-1.6-0.7-1.6-1.6
		C-133.3-33.4-132.6-34.1-131.7-34.1L-131.7-34.1z"/>
	<path class="st2" d="M-131.8-35C-131.8-35-131.7-35-131.8-35C-131.7-35-131.8-35-131.8-35L-131.8-35z"/>
	<path class="st2" d="M-131.9-35L-131.9-35c0,0,0.1,0,0.1,0C-131.9-35-131.9-35-131.9-35L-131.9-35z"/>
	<path class="st2" d="M-131.9-44.7c0.6,0,1.1,0.1,1.6,0.3c0.5,0.2,0.9,0.4,1.3,0.8c0.1,0.1,0.1,0.1,0.2,0.2c0.4,0.4,1,1.4,0.9,3.1
		c0,0-0.6,0.1-0.9,0c0,0,0,0,0,0c-0.3,0-0.6-0.1-0.7-0.2c-0.4-0.2-0.7-0.5-0.8-0.9c0,0,0,0,0-0.1c-0.2-0.7-0.7-1.3-1.6-1.3
		c-0.9,0-1.5,0.5-1.5,1.5c0,0.3,0.2,0.7,0.3,0.9c0.2,0.3,0.4,0.5,0.7,0.7c0.5,0.4,0.9,0.9,1.2,1.4c0.1,0.2,0.2,0.3,0.3,0.5
		c0.1,0.2,0.2,0.5,0.2,0.7c0,0.1,0,0.1,0,0.2c0,0.1,0,0.2,0,0.3c0,0.4,0,0.7,0,1.4c0,0,0,0,0,0c0,0,0,0,0,0.1c0,0,0,0.1,0,0.1
		c0,0,0,0,0,0c-0.5,0-0.7,0-0.9,0c0,0,0,0,0,0c0,0-0.1,0-0.1,0c-0.1,0-0.2-0.1-0.2-0.1c-0.2-0.1-0.4-0.3-0.5-0.5
		c-0.3-0.5-0.1-0.9-0.7-1.7c-0.3-0.5-0.9-0.8-1.4-1.2c-0.3-0.3-0.7-0.5-1-0.9c-0.3-0.5-0.5-1.1-0.5-2
		C-136.2-42.8-135.1-44.7-131.9-44.7L-131.9-44.7z"/>
	<polygon class="st2" points="-182,-46.6 -182,-45.1 -182,-29.4 -177.9,-29.4 -177.9,-46.6 -182,-46.6 	"/>
	<polygon class="st2" points="-66.1,-46.6 -66.1,-45.1 -66.1,-29.4 -62,-29.4 -62,-46.6 -66.1,-46.6 	"/>
	<polygon class="st2" points="-112.7,-37.1 -121.4,-37.1 -121.4,-35.3 -112.7,-35.3 -112.7,-37.1 	"/>
	<polygon class="st2" points="-112.7,-40.7 -121.4,-40.7 -121.4,-38.9 -112.7,-38.9 -112.7,-40.7 	"/>
	<polygon class="st2" points="-140.1,-39 -147.5,-39 -147.5,-37 -140.1,-37 -140.1,-39 	"/>
	<path class="st2" d="M-155.7-34.1c-0.9,0-1.6,0.7-1.6,1.6c0,0.9,0.7,1.6,1.6,1.6c0.9,0,1.6-0.7,1.6-1.6
		C-154.2-33.4-154.9-34.1-155.7-34.1L-155.7-34.1z"/>
	<path class="st2" d="M-155.7-35C-155.7-35-155.7-35-155.7-35C-155.7-35-155.7-35-155.7-35L-155.7-35z"/>
	<path class="st2" d="M-155.5-35L-155.5-35c0,0-0.1,0-0.1,0C-155.6-35-155.5-35-155.5-35L-155.5-35z"/>
	<path class="st2" d="M-155.5-44.7c-0.6,0-1.1,0.1-1.6,0.3c-0.5,0.2-0.9,0.4-1.3,0.8c-0.1,0.1-0.1,0.1-0.2,0.2
		c-0.4,0.4-1,1.4-0.9,3.1c0,0,0.6,0.1,0.9,0c0,0,0,0,0,0c0.3,0,0.6-0.1,0.7-0.2c0.4-0.2,0.7-0.5,0.8-0.9c0,0,0,0,0-0.1
		c0.2-0.7,0.7-1.3,1.6-1.3c0.9,0,1.5,0.5,1.5,1.5c0,0.3-0.2,0.7-0.3,0.9c-0.2,0.3-0.4,0.5-0.7,0.7c-0.5,0.4-0.9,0.9-1.2,1.4
		c-0.1,0.2-0.2,0.3-0.3,0.5c-0.1,0.2-0.2,0.5-0.2,0.7c0,0.1,0,0.1,0,0.2c0,0.1,0,0.2,0,0.3c0,0.4,0,0.7,0,1.4c0,0,0,0,0,0
		c0,0,0,0,0,0.1c0,0,0,0.1,0,0.1c0,0,0,0,0,0c0.5,0,0.7,0,0.9,0c0,0,0,0,0,0c0,0,0.1,0,0.1,0c0.1,0,0.2-0.1,0.2-0.1
		c0.2-0.1,0.4-0.3,0.5-0.5c0.3-0.5,0.1-0.9,0.7-1.7c0.3-0.5,0.9-0.8,1.4-1.2c0.3-0.3,0.7-0.5,1-0.9c0.3-0.5,0.5-1.1,0.5-2
		C-151.3-42.8-152.3-44.7-155.5-44.7L-155.5-44.7z"/>
	<path class="st2" d="M-85.3-41.6c0,0-0.3-0.3-0.8-0.6c-0.2-0.1-0.6-0.3-1-0.4c-0.6-0.2-1-0.3-1.1-0.3c-0.9-0.2-2-0.2-3,0.2
		c-2.1,0.8-3.3,2.4-3.5,2.8c-0.4-0.5-1.1-1.4-1.8-1.9c-1.1-0.7-2.4-1.2-3.8-1.2c-1.6,0-3,0.6-4.1,1.6c-1.1,1-1.7,2.3-1.7,3.7
		c0,1.4,0.6,2.8,1.7,3.8c0,0,0.3,0.3,0.8,0.6c0.6,0.3,2.9,1.4,5.2,0.5c2.1-0.8,3.3-2.4,3.5-2.8c0.4,0.5,1.1,1.4,1.8,1.9
		c1.1,0.7,2.4,1.2,3.8,1.2c1.6,0,3-0.6,4.1-1.6c1.1-1,1.7-2.3,1.7-3.7C-83.6-39.3-84.2-40.6-85.3-41.6L-85.3-41.6z M-98.3-35
		c-0.9,0.5-1.8,0.7-2.6,0.6c-1.1-0.1-1.8-0.5-2.3-1.1c-0.5-0.7-0.8-1.4-0.7-2.4c0.1-0.9,0.5-1.6,1.2-2.1c0.7-0.6,1.5-0.8,2.5-0.7
		c0.9,0.1,1.9,0.6,2.5,1.3c1.2,1.2,1.7,2.3,1.7,2.3S-96.8-35.9-98.3-35L-98.3-35z M-85.9-37.7c-0.1,0.9-0.5,1.6-1.2,2.1
		c-0.7,0.6-1.5,0.8-2.5,0.7c-0.9-0.1-1.9-0.6-2.5-1.3c-1.2-1.2-1.7-2.3-1.7-2.3s0.8-1.3,2.3-2.2c0.9-0.5,1.8-0.7,2.6-0.6
		c1.1,0.1,1.8,0.5,2.3,1.1C-86.1-39.4-85.8-38.6-85.9-37.7L-85.9-37.7z"/>
</g>
</svg>
