<?xml version="1.0" encoding="utf-8"?>
<!-- Generator: Adobe Illustrator 22.0.1, SVG Export Plug-In . SVG Version: 6.00 Build 0)  -->
<svg version="1.1" id="Layer_1" xmlns="http://www.w3.org/2000/svg" xmlns:xlink="http://www.w3.org/1999/xlink" x="0px" y="0px"
	 viewBox="0 0 518.1 734" style="enable-background:new 0 0 518.1 734;" xml:space="preserve">
<style type="text/css">
	.st0{fill:#B60009;}
</style>
<path class="st0" d="M449,733.9c-134.7,0-269.3,0-404,0c0.5-4.9-0.2-10.3,1.6-14.7c7.6-19.1,15.1-38.2,24-56.7
	c9-18.8,4.3-31-16.2-36.2c-8.8-2.2-15-6.8-19.8-14c-17.3-26.2-20.6-54.8-13.1-83.9c5.4-21.1,8.8-43.7,26.5-60.3
	c2.1-1.9,3-5.4,3.6-8.3c6.3-28.1,15.2-55.4,28.3-81.4c1-2,1.8-4.1,2.2-6.3c3.3-18,10.3-33.9,27-44.8c4.5-2.9,6.1-7,3.4-12.4
	c-6.2-12.4-4.2-23.5,6.3-33.2c2.3-2.1,23.9-4.5,25.8-7c12-12.7-4.2-18.6-21-22.1c-8.8-1.8-14.6-8.1-18.2-16.1
	c-6.9-15.5-10.3-37-15.4-53.2c-9.1-29.2-15.1-58.8-7.7-89.2c3.1-12.7,2.3-22.9-10.3-31.3c-8.7-5.8-7.7-17.1,0-23.9
	c12.7-11.2,27.1-17.3,45-17.4c9.2-0.1,18.7-3.7,27.3-7.2c9.7-3.9,18.7-9.5,28-14.3c4.7,0,9.5,0,14.2,0c3.9,1,7.7,2,11.6,2.9
	c20.2,4.9,36,16.7,48.8,31.3c13.9,16,25.7,33.4,28.5,55.1c1.3,10.2,3.1,21.8,9.3,29.5c8.1,10.2,8.7,19.6,7.1,31
	c-2.2,15.8-2.5,31.4,9.4,45.1c6,6.9,10.7,15,14.6,23.2c7.2,15.1,24.5,26.1,42.1,26.7c9.8,0.4,20.1,1.2,29.2,4.4
	c24.1,8.5,42.7,24,56.4,44.5c28,42,41.3,88.4,46.2,137.4c1.7,17.2,3.9,34.8,9.4,51.2c10,29.6,15.3,59.5,15.2,90.5
	c-0.1,16.2-0.4,32.4,0.1,48.5c0.3,9,2.3,18,3.5,27c0,3.4,0,6.7,0,10.1c-1.2,12.1-10.6,14.9-21,16.7c-5.4,0.9-10.8,2.3-16.2,3.4
	c-8.2,1.7-12.3,6.1-12.7,14.4c-0.8,14.9-0.9,30.3-17.7,38.8C449.8,732.2,449.5,733.2,449,733.9z"/>
</svg>
